<mxfile host="app.diagrams.net" agent="Mozilla/5.0 (Windows NT 10.0; Win64; x64) AppleWebKit/537.36 (KHTML, like Gecko) Chrome/135.0.0.0 Safari/537.36" version="26.2.12" pages="8">
  <diagram id="293ek71YPE8-M_5cT4rd" name="Діаграма класів">
    <mxGraphModel dx="1606" dy="823" grid="1" gridSize="10" guides="1" tooltips="1" connect="1" arrows="1" fold="1" page="1" pageScale="1" pageWidth="1169" pageHeight="827" math="0" shadow="0">
      <root>
        <mxCell id="0" />
        <mxCell id="1" parent="0" />
        <mxCell id="65hNuTu4E9DAibyKRNxj-1" value="Клієнт" style="swimlane;fontStyle=1;align=center;verticalAlign=top;childLayout=stackLayout;horizontal=1;startSize=26;horizontalStack=0;resizeParent=1;resizeParentMax=0;resizeLast=0;collapsible=1;marginBottom=0;whiteSpace=wrap;html=1;" parent="1" vertex="1">
          <mxGeometry x="130" y="370" width="170" height="160" as="geometry">
            <mxRectangle x="120" y="50" width="100" height="30" as="alternateBounds" />
          </mxGeometry>
        </mxCell>
        <mxCell id="65hNuTu4E9DAibyKRNxj-2" value="&lt;div&gt;&lt;span style=&quot;background-color: transparent; color: light-dark(rgb(0, 0, 0), rgb(255, 255, 255));&quot;&gt;- phoneNumber: string&amp;nbsp;&lt;/span&gt;&lt;/div&gt;" style="text;strokeColor=none;fillColor=none;align=left;verticalAlign=top;spacingLeft=4;spacingRight=4;overflow=hidden;rotatable=0;points=[[0,0.5],[1,0.5]];portConstraint=eastwest;whiteSpace=wrap;html=1;" parent="65hNuTu4E9DAibyKRNxj-1" vertex="1">
          <mxGeometry y="26" width="170" height="34" as="geometry" />
        </mxCell>
        <mxCell id="65hNuTu4E9DAibyKRNxj-3" value="" style="line;strokeWidth=1;fillColor=none;align=left;verticalAlign=middle;spacingTop=-1;spacingLeft=3;spacingRight=3;rotatable=0;labelPosition=right;points=[];portConstraint=eastwest;strokeColor=inherit;" parent="65hNuTu4E9DAibyKRNxj-1" vertex="1">
          <mxGeometry y="60" width="170" height="8" as="geometry" />
        </mxCell>
        <mxCell id="65hNuTu4E9DAibyKRNxj-4" value="&lt;div&gt;- registration(): void&lt;/div&gt;&lt;div&gt;&lt;span style=&quot;background-color: transparent; color: light-dark(rgb(0, 0, 0), rgb(255, 255, 255));&quot;&gt;- deleteAccount(): void&lt;/span&gt;&lt;/div&gt;&lt;div&gt;- selectRoute(): void&lt;/div&gt;&lt;div&gt;- filterRoutes(): void&lt;/div&gt;&lt;div&gt;- savePreferredRoute(): void&lt;/div&gt;" style="text;strokeColor=none;fillColor=none;align=left;verticalAlign=top;spacingLeft=4;spacingRight=4;overflow=hidden;rotatable=0;points=[[0,0.5],[1,0.5]];portConstraint=eastwest;whiteSpace=wrap;html=1;" parent="65hNuTu4E9DAibyKRNxj-1" vertex="1">
          <mxGeometry y="68" width="170" height="92" as="geometry" />
        </mxCell>
        <mxCell id="65hNuTu4E9DAibyKRNxj-5" value="Моніторинг" style="swimlane;fontStyle=1;align=center;verticalAlign=top;childLayout=stackLayout;horizontal=1;startSize=26;horizontalStack=0;resizeParent=1;resizeParentMax=0;resizeLast=0;collapsible=1;marginBottom=0;whiteSpace=wrap;html=1;" parent="1" vertex="1">
          <mxGeometry x="780" y="580" width="170" height="200" as="geometry" />
        </mxCell>
        <mxCell id="65hNuTu4E9DAibyKRNxj-6" value="-&amp;nbsp;userInput: int&lt;div&gt;- outputdata: string&lt;/div&gt;&lt;div&gt;- alertSettings: bool&lt;/div&gt;&lt;div&gt;-updateFrequency: int&lt;/div&gt;" style="text;strokeColor=none;fillColor=none;align=left;verticalAlign=top;spacingLeft=4;spacingRight=4;overflow=hidden;rotatable=0;points=[[0,0.5],[1,0.5]];portConstraint=eastwest;whiteSpace=wrap;html=1;" parent="65hNuTu4E9DAibyKRNxj-5" vertex="1">
          <mxGeometry y="26" width="170" height="74" as="geometry" />
        </mxCell>
        <mxCell id="65hNuTu4E9DAibyKRNxj-7" value="" style="line;strokeWidth=1;fillColor=none;align=left;verticalAlign=middle;spacingTop=-1;spacingLeft=3;spacingRight=3;rotatable=0;labelPosition=right;points=[];portConstraint=eastwest;strokeColor=inherit;" parent="65hNuTu4E9DAibyKRNxj-5" vertex="1">
          <mxGeometry y="100" width="170" height="8" as="geometry" />
        </mxCell>
        <mxCell id="65hNuTu4E9DAibyKRNxj-8" value="-&amp;nbsp;displayWeather(): void&lt;div&gt;- alerUser(): void&lt;/div&gt;&lt;div&gt;- collectUserInput(): string&lt;/div&gt;&lt;div&gt;-&amp;nbsp;validateInput(): bool&lt;/div&gt;&lt;div&gt;-&amp;nbsp;updateDisplay(): void&lt;/div&gt;" style="text;strokeColor=none;fillColor=none;align=left;verticalAlign=top;spacingLeft=4;spacingRight=4;overflow=hidden;rotatable=0;points=[[0,0.5],[1,0.5]];portConstraint=eastwest;whiteSpace=wrap;html=1;" parent="65hNuTu4E9DAibyKRNxj-5" vertex="1">
          <mxGeometry y="108" width="170" height="92" as="geometry" />
        </mxCell>
        <mxCell id="65hNuTu4E9DAibyKRNxj-9" value="Диспетчер" style="swimlane;fontStyle=1;align=center;verticalAlign=top;childLayout=stackLayout;horizontal=1;startSize=26;horizontalStack=0;resizeParent=1;resizeParentMax=0;resizeLast=0;collapsible=1;marginBottom=0;whiteSpace=wrap;html=1;" parent="1" vertex="1">
          <mxGeometry x="710" y="287" width="200" height="180" as="geometry" />
        </mxCell>
        <mxCell id="65hNuTu4E9DAibyKRNxj-10" value="&lt;div&gt;- role: string&lt;/div&gt;&lt;div&gt;-authorizationStatus: bool&lt;/div&gt;&lt;div&gt;-notificationPreferences: string&lt;/div&gt;" style="text;strokeColor=none;fillColor=none;align=left;verticalAlign=top;spacingLeft=4;spacingRight=4;overflow=hidden;rotatable=0;points=[[0,0.5],[1,0.5]];portConstraint=eastwest;whiteSpace=wrap;html=1;" parent="65hNuTu4E9DAibyKRNxj-9" vertex="1">
          <mxGeometry y="26" width="200" height="54" as="geometry" />
        </mxCell>
        <mxCell id="65hNuTu4E9DAibyKRNxj-11" value="" style="line;strokeWidth=1;fillColor=none;align=left;verticalAlign=middle;spacingTop=-1;spacingLeft=3;spacingRight=3;rotatable=0;labelPosition=right;points=[];portConstraint=eastwest;strokeColor=inherit;" parent="65hNuTu4E9DAibyKRNxj-9" vertex="1">
          <mxGeometry y="80" width="200" height="8" as="geometry" />
        </mxCell>
        <mxCell id="65hNuTu4E9DAibyKRNxj-12" value="-&amp;nbsp;sendAuthorizationRequest(): void&lt;div&gt;-&amp;nbsp;processReceivedData(): void&lt;/div&gt;&lt;div&gt;-&amp;nbsp;notifyDrivers(): void&lt;/div&gt;&lt;div&gt;-&amp;nbsp;confirmInformation(): void&lt;/div&gt;&lt;div&gt;-&amp;nbsp;reviewLogs(): void&lt;/div&gt;&lt;div&gt;-&amp;nbsp;updateMonitoringStatus(): void&lt;/div&gt;" style="text;strokeColor=none;fillColor=none;align=left;verticalAlign=top;spacingLeft=4;spacingRight=4;overflow=hidden;rotatable=0;points=[[0,0.5],[1,0.5]];portConstraint=eastwest;whiteSpace=wrap;html=1;" parent="65hNuTu4E9DAibyKRNxj-9" vertex="1">
          <mxGeometry y="88" width="200" height="92" as="geometry" />
        </mxCell>
        <mxCell id="1_yibrZAErBl6fD4HhNc-1" value="Авторизація" style="swimlane;fontStyle=1;align=center;verticalAlign=top;childLayout=stackLayout;horizontal=1;startSize=26;horizontalStack=0;resizeParent=1;resizeParentMax=0;resizeLast=0;collapsible=1;marginBottom=0;whiteSpace=wrap;html=1;" parent="1" vertex="1">
          <mxGeometry x="420" y="287" width="220" height="208" as="geometry" />
        </mxCell>
        <mxCell id="1_yibrZAErBl6fD4HhNc-2" value="-&amp;nbsp;authID: int&lt;div&gt;-&amp;nbsp;authToken: string&amp;nbsp;&lt;/div&gt;&lt;div&gt;-&amp;nbsp;authStatus: bool&lt;/div&gt;&lt;div&gt;-&amp;nbsp;maxAttempts: int&lt;/div&gt;&lt;div&gt;-&amp;nbsp;expirationTime: datetime&lt;/div&gt;&lt;div&gt;&lt;br&gt;&lt;/div&gt;" style="text;strokeColor=none;fillColor=none;align=left;verticalAlign=top;spacingLeft=4;spacingRight=4;overflow=hidden;rotatable=0;points=[[0,0.5],[1,0.5]];portConstraint=eastwest;whiteSpace=wrap;html=1;" parent="1_yibrZAErBl6fD4HhNc-1" vertex="1">
          <mxGeometry y="26" width="220" height="84" as="geometry" />
        </mxCell>
        <mxCell id="1_yibrZAErBl6fD4HhNc-3" value="" style="line;strokeWidth=1;fillColor=none;align=left;verticalAlign=middle;spacingTop=-1;spacingLeft=3;spacingRight=3;rotatable=0;labelPosition=right;points=[];portConstraint=eastwest;strokeColor=inherit;" parent="1_yibrZAErBl6fD4HhNc-1" vertex="1">
          <mxGeometry y="110" width="220" height="8" as="geometry" />
        </mxCell>
        <mxCell id="1_yibrZAErBl6fD4HhNc-4" value="-&amp;nbsp;processAuthorizationRequest(): void&lt;div&gt;-&amp;nbsp;validateToken(): bool&lt;/div&gt;&lt;div&gt;-&amp;nbsp;updateStatus(): void&lt;/div&gt;&lt;div&gt;-&amp;nbsp;resetAttempts(): void&lt;/div&gt;&lt;div&gt;-&amp;nbsp;sendAuthorizationResponse(): void&lt;/div&gt;&lt;div&gt;&lt;br&gt;&lt;/div&gt;" style="text;strokeColor=none;fillColor=none;align=left;verticalAlign=top;spacingLeft=4;spacingRight=4;overflow=hidden;rotatable=0;points=[[0,0.5],[1,0.5]];portConstraint=eastwest;whiteSpace=wrap;html=1;" parent="1_yibrZAErBl6fD4HhNc-1" vertex="1">
          <mxGeometry y="118" width="220" height="90" as="geometry" />
        </mxCell>
        <mxCell id="1_yibrZAErBl6fD4HhNc-5" value="Пошук маршрутів" style="swimlane;fontStyle=1;align=center;verticalAlign=top;childLayout=stackLayout;horizontal=1;startSize=26;horizontalStack=0;resizeParent=1;resizeParentMax=0;resizeLast=0;collapsible=1;marginBottom=0;whiteSpace=wrap;html=1;" parent="1" vertex="1">
          <mxGeometry x="1180" y="228" width="160" height="190" as="geometry" />
        </mxCell>
        <mxCell id="1_yibrZAErBl6fD4HhNc-6" value="-&amp;nbsp;startPoint: string&lt;div&gt;- endPoint: string&lt;/div&gt;&lt;div&gt;-&amp;nbsp;routeOptions: string&lt;/div&gt;&lt;div&gt;-&amp;nbsp;searchTime: datetime&lt;/div&gt;" style="text;strokeColor=none;fillColor=none;align=left;verticalAlign=top;spacingLeft=4;spacingRight=4;overflow=hidden;rotatable=0;points=[[0,0.5],[1,0.5]];portConstraint=eastwest;whiteSpace=wrap;html=1;" parent="1_yibrZAErBl6fD4HhNc-5" vertex="1">
          <mxGeometry y="26" width="160" height="74" as="geometry" />
        </mxCell>
        <mxCell id="1_yibrZAErBl6fD4HhNc-7" value="" style="line;strokeWidth=1;fillColor=none;align=left;verticalAlign=middle;spacingTop=-1;spacingLeft=3;spacingRight=3;rotatable=0;labelPosition=right;points=[];portConstraint=eastwest;strokeColor=inherit;" parent="1_yibrZAErBl6fD4HhNc-5" vertex="1">
          <mxGeometry y="100" width="160" height="8" as="geometry" />
        </mxCell>
        <mxCell id="1_yibrZAErBl6fD4HhNc-8" value="-&amp;nbsp;searchRoutes(): void&lt;div&gt;-&amp;nbsp;optimizeRoute(): void&lt;/div&gt;&lt;div&gt;-&amp;nbsp;calculateDistance(): void&lt;/div&gt;&lt;div&gt;-&amp;nbsp;estimateTime(): void&lt;/div&gt;&lt;div&gt;-&amp;nbsp;suggestAlternatives(): void&lt;/div&gt;" style="text;strokeColor=none;fillColor=none;align=left;verticalAlign=top;spacingLeft=4;spacingRight=4;overflow=hidden;rotatable=0;points=[[0,0.5],[1,0.5]];portConstraint=eastwest;whiteSpace=wrap;html=1;" parent="1_yibrZAErBl6fD4HhNc-5" vertex="1">
          <mxGeometry y="108" width="160" height="82" as="geometry" />
        </mxCell>
        <mxCell id="1_yibrZAErBl6fD4HhNc-9" value="Аналіз ризиків" style="swimlane;fontStyle=1;align=center;verticalAlign=top;childLayout=stackLayout;horizontal=1;startSize=26;horizontalStack=0;resizeParent=1;resizeParentMax=0;resizeLast=0;collapsible=1;marginBottom=0;whiteSpace=wrap;html=1;" parent="1" vertex="1">
          <mxGeometry x="940" y="228" width="170" height="216" as="geometry" />
        </mxCell>
        <mxCell id="1_yibrZAErBl6fD4HhNc-10" value="-&amp;nbsp;analysisID: int&lt;div&gt;-&amp;nbsp;riskFactors: string&lt;/div&gt;&lt;div&gt;-&amp;nbsp;criticalThreshold: string&lt;/div&gt;&lt;div&gt;-&amp;nbsp;suggestedActions: string&lt;/div&gt;&lt;div&gt;-&amp;nbsp;analysisTime: datetime&lt;/div&gt;" style="text;strokeColor=none;fillColor=none;align=left;verticalAlign=top;spacingLeft=4;spacingRight=4;overflow=hidden;rotatable=0;points=[[0,0.5],[1,0.5]];portConstraint=eastwest;whiteSpace=wrap;html=1;" parent="1_yibrZAErBl6fD4HhNc-9" vertex="1">
          <mxGeometry y="26" width="170" height="90" as="geometry" />
        </mxCell>
        <mxCell id="1_yibrZAErBl6fD4HhNc-11" value="" style="line;strokeWidth=1;fillColor=none;align=left;verticalAlign=middle;spacingTop=-1;spacingLeft=3;spacingRight=3;rotatable=0;labelPosition=right;points=[];portConstraint=eastwest;strokeColor=inherit;" parent="1_yibrZAErBl6fD4HhNc-9" vertex="1">
          <mxGeometry y="116" width="170" height="8" as="geometry" />
        </mxCell>
        <mxCell id="1_yibrZAErBl6fD4HhNc-12" value="-&amp;nbsp;analyzeWeatherRisks(): void&lt;div&gt;-&amp;nbsp;generateRiskReport(): void&lt;/div&gt;&lt;div&gt;-&amp;nbsp;proposeAdjustments(): void&lt;/div&gt;&lt;div&gt;-&amp;nbsp;communicateResults(): void&lt;/div&gt;&lt;div&gt;-&amp;nbsp;storeAnalysisData(): void&lt;/div&gt;" style="text;strokeColor=none;fillColor=none;align=left;verticalAlign=top;spacingLeft=4;spacingRight=4;overflow=hidden;rotatable=0;points=[[0,0.5],[1,0.5]];portConstraint=eastwest;whiteSpace=wrap;html=1;" parent="1_yibrZAErBl6fD4HhNc-9" vertex="1">
          <mxGeometry y="124" width="170" height="92" as="geometry" />
        </mxCell>
        <mxCell id="1_yibrZAErBl6fD4HhNc-13" value="Прогноз погоди" style="swimlane;fontStyle=1;align=center;verticalAlign=top;childLayout=stackLayout;horizontal=1;startSize=26;horizontalStack=0;resizeParent=1;resizeParentMax=0;resizeLast=0;collapsible=1;marginBottom=0;whiteSpace=wrap;html=1;" parent="1" vertex="1">
          <mxGeometry x="1380" y="228" width="190" height="200" as="geometry" />
        </mxCell>
        <mxCell id="1_yibrZAErBl6fD4HhNc-14" value="-&amp;nbsp;weatherData: string&lt;div&gt;-&amp;nbsp;updateTime: datetime&lt;/div&gt;&lt;div&gt;-&amp;nbsp;reliabilityRate: float&lt;/div&gt;&lt;div&gt;-&amp;nbsp;source: string&lt;/div&gt;&lt;div&gt;&lt;br&gt;&lt;/div&gt;" style="text;strokeColor=none;fillColor=none;align=left;verticalAlign=top;spacingLeft=4;spacingRight=4;overflow=hidden;rotatable=0;points=[[0,0.5],[1,0.5]];portConstraint=eastwest;whiteSpace=wrap;html=1;" parent="1_yibrZAErBl6fD4HhNc-13" vertex="1">
          <mxGeometry y="26" width="190" height="74" as="geometry" />
        </mxCell>
        <mxCell id="1_yibrZAErBl6fD4HhNc-15" value="" style="line;strokeWidth=1;fillColor=none;align=left;verticalAlign=middle;spacingTop=-1;spacingLeft=3;spacingRight=3;rotatable=0;labelPosition=right;points=[];portConstraint=eastwest;strokeColor=inherit;" parent="1_yibrZAErBl6fD4HhNc-13" vertex="1">
          <mxGeometry y="100" width="190" height="8" as="geometry" />
        </mxCell>
        <mxCell id="1_yibrZAErBl6fD4HhNc-16" value="-&amp;nbsp;fetchWeatherData(): void&lt;div&gt;-&amp;nbsp;analyzeWeatherPatterns(): void&lt;/div&gt;&lt;div&gt;-&amp;nbsp;generateForecast(): void&lt;/div&gt;&lt;div&gt;-&amp;nbsp;sendDataToRiskModule(): void&lt;/div&gt;&lt;div&gt;-&amp;nbsp;logWeatherData (): void&lt;/div&gt;" style="text;strokeColor=none;fillColor=none;align=left;verticalAlign=top;spacingLeft=4;spacingRight=4;overflow=hidden;rotatable=0;points=[[0,0.5],[1,0.5]];portConstraint=eastwest;whiteSpace=wrap;html=1;" parent="1_yibrZAErBl6fD4HhNc-13" vertex="1">
          <mxGeometry y="108" width="190" height="92" as="geometry" />
        </mxCell>
        <mxCell id="1_yibrZAErBl6fD4HhNc-17" value="База даних" style="swimlane;fontStyle=1;align=center;verticalAlign=top;childLayout=stackLayout;horizontal=1;startSize=26;horizontalStack=0;resizeParent=1;resizeParentMax=0;resizeLast=0;collapsible=1;marginBottom=0;whiteSpace=wrap;html=1;" parent="1" vertex="1">
          <mxGeometry x="1250" y="580" width="170" height="200" as="geometry" />
        </mxCell>
        <mxCell id="1_yibrZAErBl6fD4HhNc-18" value="-&amp;nbsp;dataCapacity: int&lt;div&gt;-&amp;nbsp;queryTime: datetime&lt;/div&gt;&lt;div&gt;-&amp;nbsp;backupFrequency: int&lt;/div&gt;&lt;div&gt;-&amp;nbsp;connectionStatus: bool&lt;/div&gt;" style="text;strokeColor=none;fillColor=none;align=left;verticalAlign=top;spacingLeft=4;spacingRight=4;overflow=hidden;rotatable=0;points=[[0,0.5],[1,0.5]];portConstraint=eastwest;whiteSpace=wrap;html=1;" parent="1_yibrZAErBl6fD4HhNc-17" vertex="1">
          <mxGeometry y="26" width="170" height="74" as="geometry" />
        </mxCell>
        <mxCell id="1_yibrZAErBl6fD4HhNc-19" value="" style="line;strokeWidth=1;fillColor=none;align=left;verticalAlign=middle;spacingTop=-1;spacingLeft=3;spacingRight=3;rotatable=0;labelPosition=right;points=[];portConstraint=eastwest;strokeColor=inherit;" parent="1_yibrZAErBl6fD4HhNc-17" vertex="1">
          <mxGeometry y="100" width="170" height="8" as="geometry" />
        </mxCell>
        <mxCell id="1_yibrZAErBl6fD4HhNc-20" value="-&amp;nbsp;storeData(): void&lt;div&gt;-&amp;nbsp;executeQuery(): void&lt;/div&gt;&lt;div&gt;-&amp;nbsp;retrieveData(): void&lt;/div&gt;&lt;div&gt;-&amp;nbsp;backupData(): void&lt;/div&gt;&lt;div&gt;-&amp;nbsp;closeConnection(): void&lt;/div&gt;" style="text;strokeColor=none;fillColor=none;align=left;verticalAlign=top;spacingLeft=4;spacingRight=4;overflow=hidden;rotatable=0;points=[[0,0.5],[1,0.5]];portConstraint=eastwest;whiteSpace=wrap;html=1;" parent="1_yibrZAErBl6fD4HhNc-17" vertex="1">
          <mxGeometry y="108" width="170" height="92" as="geometry" />
        </mxCell>
        <mxCell id="1_yibrZAErBl6fD4HhNc-21" value="Сповіщення " style="swimlane;fontStyle=1;align=center;verticalAlign=top;childLayout=stackLayout;horizontal=1;startSize=26;horizontalStack=0;resizeParent=1;resizeParentMax=0;resizeLast=0;collapsible=1;marginBottom=0;whiteSpace=wrap;html=1;" parent="1" vertex="1">
          <mxGeometry x="410" y="570" width="160" height="200" as="geometry" />
        </mxCell>
        <mxCell id="1_yibrZAErBl6fD4HhNc-22" value="-&amp;nbsp;notificationID: int&lt;div&gt;-&amp;nbsp;messageContent: string&lt;/div&gt;&lt;div&gt;-&amp;nbsp;recipientID: int&lt;/div&gt;&lt;div&gt;-&amp;nbsp;timestamp: datetime&lt;/div&gt;&lt;div&gt;-&amp;nbsp;status: bool&lt;/div&gt;" style="text;strokeColor=none;fillColor=none;align=left;verticalAlign=top;spacingLeft=4;spacingRight=4;overflow=hidden;rotatable=0;points=[[0,0.5],[1,0.5]];portConstraint=eastwest;whiteSpace=wrap;html=1;" parent="1_yibrZAErBl6fD4HhNc-21" vertex="1">
          <mxGeometry y="26" width="160" height="84" as="geometry" />
        </mxCell>
        <mxCell id="1_yibrZAErBl6fD4HhNc-23" value="" style="line;strokeWidth=1;fillColor=none;align=left;verticalAlign=middle;spacingTop=-1;spacingLeft=3;spacingRight=3;rotatable=0;labelPosition=right;points=[];portConstraint=eastwest;strokeColor=inherit;" parent="1_yibrZAErBl6fD4HhNc-21" vertex="1">
          <mxGeometry y="110" width="160" height="8" as="geometry" />
        </mxCell>
        <mxCell id="1_yibrZAErBl6fD4HhNc-24" value="- createNotification(): void&lt;div&gt;-&amp;nbsp;sendNotification(): bool&lt;/div&gt;&lt;div&gt;-&amp;nbsp;markAsRead(): bool&lt;/div&gt;&lt;div&gt;-&amp;nbsp;archiveNotification(): void&lt;/div&gt;&lt;div&gt;-&amp;nbsp;deleteNotification(): void&lt;/div&gt;" style="text;strokeColor=none;fillColor=none;align=left;verticalAlign=top;spacingLeft=4;spacingRight=4;overflow=hidden;rotatable=0;points=[[0,0.5],[1,0.5]];portConstraint=eastwest;whiteSpace=wrap;html=1;" parent="1_yibrZAErBl6fD4HhNc-21" vertex="1">
          <mxGeometry y="118" width="160" height="82" as="geometry" />
        </mxCell>
        <mxCell id="1_yibrZAErBl6fD4HhNc-25" value="Журнал подій" style="swimlane;fontStyle=1;align=center;verticalAlign=top;childLayout=stackLayout;horizontal=1;startSize=26;horizontalStack=0;resizeParent=1;resizeParentMax=0;resizeLast=0;collapsible=1;marginBottom=0;whiteSpace=wrap;html=1;" parent="1" vertex="1">
          <mxGeometry x="740" y="15" width="135" height="200" as="geometry" />
        </mxCell>
        <mxCell id="1_yibrZAErBl6fD4HhNc-26" value="- logID: int&lt;div&gt;-&amp;nbsp;eventDetails: string&lt;/div&gt;&lt;div&gt;-&amp;nbsp;timestamp: datetime&lt;/div&gt;&lt;div&gt;-&amp;nbsp;severityLevel: int&lt;/div&gt;&lt;div&gt;-&amp;nbsp;userAction: string&lt;/div&gt;" style="text;strokeColor=none;fillColor=none;align=left;verticalAlign=top;spacingLeft=4;spacingRight=4;overflow=hidden;rotatable=0;points=[[0,0.5],[1,0.5]];portConstraint=eastwest;whiteSpace=wrap;html=1;" parent="1_yibrZAErBl6fD4HhNc-25" vertex="1">
          <mxGeometry y="26" width="135" height="84" as="geometry" />
        </mxCell>
        <mxCell id="1_yibrZAErBl6fD4HhNc-27" value="" style="line;strokeWidth=1;fillColor=none;align=left;verticalAlign=middle;spacingTop=-1;spacingLeft=3;spacingRight=3;rotatable=0;labelPosition=right;points=[];portConstraint=eastwest;strokeColor=inherit;" parent="1_yibrZAErBl6fD4HhNc-25" vertex="1">
          <mxGeometry y="110" width="135" height="8" as="geometry" />
        </mxCell>
        <mxCell id="1_yibrZAErBl6fD4HhNc-28" value="-&amp;nbsp;logEvent(): void&lt;div&gt;-&amp;nbsp;filterLogs(): void&lt;/div&gt;&lt;div&gt;-&amp;nbsp;exportLogs(): void&lt;/div&gt;&lt;div&gt;-&amp;nbsp;analyzeLogs(): void&lt;/div&gt;&lt;div&gt;-&amp;nbsp;deleteOldLogs(): void&lt;/div&gt;" style="text;strokeColor=none;fillColor=none;align=left;verticalAlign=top;spacingLeft=4;spacingRight=4;overflow=hidden;rotatable=0;points=[[0,0.5],[1,0.5]];portConstraint=eastwest;whiteSpace=wrap;html=1;" parent="1_yibrZAErBl6fD4HhNc-25" vertex="1">
          <mxGeometry y="118" width="135" height="82" as="geometry" />
        </mxCell>
        <mxCell id="1_yibrZAErBl6fD4HhNc-29" value="Базовий модуль&amp;nbsp;" style="swimlane;fontStyle=1;align=center;verticalAlign=top;childLayout=stackLayout;horizontal=1;startSize=26;horizontalStack=0;resizeParent=1;resizeParentMax=0;resizeLast=0;collapsible=1;marginBottom=0;whiteSpace=wrap;html=1;" parent="1" vertex="1">
          <mxGeometry x="1190" y="50" width="140" height="130" as="geometry" />
        </mxCell>
        <mxCell id="1_yibrZAErBl6fD4HhNc-30" value="- componentID: int&lt;div&gt;- status: bool&lt;/div&gt;&lt;div&gt;- lastUpdated: datetime&lt;/div&gt;" style="text;strokeColor=none;fillColor=none;align=left;verticalAlign=top;spacingLeft=4;spacingRight=4;overflow=hidden;rotatable=0;points=[[0,0.5],[1,0.5]];portConstraint=eastwest;whiteSpace=wrap;html=1;" parent="1_yibrZAErBl6fD4HhNc-29" vertex="1">
          <mxGeometry y="26" width="140" height="54" as="geometry" />
        </mxCell>
        <mxCell id="1_yibrZAErBl6fD4HhNc-31" value="" style="line;strokeWidth=1;fillColor=none;align=left;verticalAlign=middle;spacingTop=-1;spacingLeft=3;spacingRight=3;rotatable=0;labelPosition=right;points=[];portConstraint=eastwest;strokeColor=inherit;" parent="1_yibrZAErBl6fD4HhNc-29" vertex="1">
          <mxGeometry y="80" width="140" height="8" as="geometry" />
        </mxCell>
        <mxCell id="1_yibrZAErBl6fD4HhNc-32" value="-&amp;nbsp;getStatus(): bool&lt;div&gt;-&amp;nbsp;logEvent(): void&amp;nbsp;&lt;/div&gt;" style="text;strokeColor=none;fillColor=none;align=left;verticalAlign=top;spacingLeft=4;spacingRight=4;overflow=hidden;rotatable=0;points=[[0,0.5],[1,0.5]];portConstraint=eastwest;whiteSpace=wrap;html=1;" parent="1_yibrZAErBl6fD4HhNc-29" vertex="1">
          <mxGeometry y="88" width="140" height="42" as="geometry" />
        </mxCell>
        <mxCell id="1_yibrZAErBl6fD4HhNc-33" value="Користувач&amp;nbsp;" style="swimlane;fontStyle=1;align=center;verticalAlign=top;childLayout=stackLayout;horizontal=1;startSize=26;horizontalStack=0;resizeParent=1;resizeParentMax=0;resizeLast=0;collapsible=1;marginBottom=0;whiteSpace=wrap;html=1;" parent="1" vertex="1">
          <mxGeometry x="440" y="40" width="130" height="170" as="geometry" />
        </mxCell>
        <mxCell id="1_yibrZAErBl6fD4HhNc-34" value="- userID: int&lt;div&gt;-&amp;nbsp;username: string&lt;/div&gt;&lt;div&gt;-&amp;nbsp;password: string&lt;/div&gt;&lt;div&gt;-&amp;nbsp;email: string&lt;br&gt;&lt;br&gt;&lt;/div&gt;" style="text;strokeColor=none;fillColor=none;align=left;verticalAlign=top;spacingLeft=4;spacingRight=4;overflow=hidden;rotatable=0;points=[[0,0.5],[1,0.5]];portConstraint=eastwest;whiteSpace=wrap;html=1;" parent="1_yibrZAErBl6fD4HhNc-33" vertex="1">
          <mxGeometry y="26" width="130" height="74" as="geometry" />
        </mxCell>
        <mxCell id="1_yibrZAErBl6fD4HhNc-35" value="" style="line;strokeWidth=1;fillColor=none;align=left;verticalAlign=middle;spacingTop=-1;spacingLeft=3;spacingRight=3;rotatable=0;labelPosition=right;points=[];portConstraint=eastwest;strokeColor=inherit;" parent="1_yibrZAErBl6fD4HhNc-33" vertex="1">
          <mxGeometry y="100" width="130" height="8" as="geometry" />
        </mxCell>
        <mxCell id="1_yibrZAErBl6fD4HhNc-36" value="- login(): bool&lt;div&gt;- logout(): void&lt;/div&gt;&lt;div&gt;-&amp;nbsp;updateProfile(): bool&lt;/div&gt;" style="text;strokeColor=none;fillColor=none;align=left;verticalAlign=top;spacingLeft=4;spacingRight=4;overflow=hidden;rotatable=0;points=[[0,0.5],[1,0.5]];portConstraint=eastwest;whiteSpace=wrap;html=1;" parent="1_yibrZAErBl6fD4HhNc-33" vertex="1">
          <mxGeometry y="108" width="130" height="62" as="geometry" />
        </mxCell>
        <mxCell id="1_yibrZAErBl6fD4HhNc-37" value="(успадкування)" style="endArrow=block;endSize=16;endFill=0;html=1;rounded=0;entryX=0;entryY=0.5;entryDx=0;entryDy=0;exitX=1.004;exitY=0.896;exitDx=0;exitDy=0;exitPerimeter=0;" parent="1" source="65hNuTu4E9DAibyKRNxj-2" target="1_yibrZAErBl6fD4HhNc-36" edge="1">
          <mxGeometry width="160" relative="1" as="geometry">
            <mxPoint x="500" y="350" as="sourcePoint" />
            <mxPoint x="660" y="350" as="targetPoint" />
          </mxGeometry>
        </mxCell>
        <mxCell id="1_yibrZAErBl6fD4HhNc-38" value="успадкування" style="endArrow=block;endSize=16;endFill=0;html=1;rounded=0;exitX=0;exitY=0.5;exitDx=0;exitDy=0;entryX=1;entryY=0.5;entryDx=0;entryDy=0;" parent="1" source="65hNuTu4E9DAibyKRNxj-10" target="1_yibrZAErBl6fD4HhNc-36" edge="1">
          <mxGeometry width="160" relative="1" as="geometry">
            <mxPoint x="270" y="330" as="sourcePoint" />
            <mxPoint x="410" y="250" as="targetPoint" />
          </mxGeometry>
        </mxCell>
        <mxCell id="1_yibrZAErBl6fD4HhNc-39" value="" style="endArrow=block;endSize=16;endFill=0;html=1;rounded=0;entryX=1.015;entryY=0.377;entryDx=0;entryDy=0;entryPerimeter=0;exitX=0.5;exitY=0;exitDx=0;exitDy=0;" parent="1" source="1_yibrZAErBl6fD4HhNc-13" target="1_yibrZAErBl6fD4HhNc-32" edge="1">
          <mxGeometry width="160" relative="1" as="geometry">
            <mxPoint x="1170" y="308" as="sourcePoint" />
            <mxPoint x="1330" y="308" as="targetPoint" />
          </mxGeometry>
        </mxCell>
        <mxCell id="1_yibrZAErBl6fD4HhNc-40" value="" style="endArrow=block;endSize=16;endFill=0;html=1;rounded=0;entryX=0.497;entryY=1.023;entryDx=0;entryDy=0;entryPerimeter=0;exitX=0.5;exitY=0;exitDx=0;exitDy=0;" parent="1" source="1_yibrZAErBl6fD4HhNc-5" target="1_yibrZAErBl6fD4HhNc-32" edge="1">
          <mxGeometry width="160" relative="1" as="geometry">
            <mxPoint x="1485" y="165" as="sourcePoint" />
            <mxPoint x="1363" y="164" as="targetPoint" />
          </mxGeometry>
        </mxCell>
        <mxCell id="1_yibrZAErBl6fD4HhNc-41" value="" style="endArrow=block;endSize=16;endFill=0;html=1;rounded=0;entryX=-0.004;entryY=0.206;entryDx=0;entryDy=0;entryPerimeter=0;exitX=0.5;exitY=0;exitDx=0;exitDy=0;" parent="1" source="1_yibrZAErBl6fD4HhNc-9" target="1_yibrZAErBl6fD4HhNc-32" edge="1">
          <mxGeometry width="160" relative="1" as="geometry">
            <mxPoint x="1485" y="165" as="sourcePoint" />
            <mxPoint x="1363" y="164" as="targetPoint" />
          </mxGeometry>
        </mxCell>
        <mxCell id="1_yibrZAErBl6fD4HhNc-43" value="" style="endArrow=open;endFill=1;endSize=12;html=1;rounded=0;entryX=0.5;entryY=0;entryDx=0;entryDy=0;" parent="1" source="65hNuTu4E9DAibyKRNxj-4" target="65hNuTu4E9DAibyKRNxj-5" edge="1">
          <mxGeometry width="160" relative="1" as="geometry">
            <mxPoint x="790" y="450" as="sourcePoint" />
            <mxPoint x="950" y="450" as="targetPoint" />
          </mxGeometry>
        </mxCell>
        <mxCell id="1_yibrZAErBl6fD4HhNc-45" value="" style="endArrow=open;endFill=1;endSize=12;html=1;rounded=0;entryX=1.037;entryY=0.011;entryDx=0;entryDy=0;entryPerimeter=0;exitX=0.45;exitY=1.023;exitDx=0;exitDy=0;exitPerimeter=0;" parent="1" source="1_yibrZAErBl6fD4HhNc-16" target="65hNuTu4E9DAibyKRNxj-8" edge="1">
          <mxGeometry width="160" relative="1" as="geometry">
            <mxPoint x="790" y="510" as="sourcePoint" />
            <mxPoint x="950" y="510" as="targetPoint" />
          </mxGeometry>
        </mxCell>
        <mxCell id="1_yibrZAErBl6fD4HhNc-46" value="" style="endArrow=open;endFill=1;endSize=12;html=1;rounded=0;exitX=0.404;exitY=1.036;exitDx=0;exitDy=0;exitPerimeter=0;entryX=1.021;entryY=0.059;entryDx=0;entryDy=0;entryPerimeter=0;" parent="1" source="1_yibrZAErBl6fD4HhNc-8" target="65hNuTu4E9DAibyKRNxj-6" edge="1">
          <mxGeometry width="160" relative="1" as="geometry">
            <mxPoint x="790" y="510" as="sourcePoint" />
            <mxPoint x="950" y="510" as="targetPoint" />
          </mxGeometry>
        </mxCell>
        <mxCell id="1_yibrZAErBl6fD4HhNc-47" value="" style="endArrow=open;endFill=1;endSize=12;html=1;rounded=0;entryX=0.75;entryY=0;entryDx=0;entryDy=0;" parent="1" source="1_yibrZAErBl6fD4HhNc-12" target="65hNuTu4E9DAibyKRNxj-5" edge="1">
          <mxGeometry width="160" relative="1" as="geometry">
            <mxPoint x="790" y="510" as="sourcePoint" />
            <mxPoint x="950" y="510" as="targetPoint" />
          </mxGeometry>
        </mxCell>
        <mxCell id="1_yibrZAErBl6fD4HhNc-48" value="" style="endArrow=open;endFill=1;endSize=12;html=1;rounded=0;exitX=0.708;exitY=1.033;exitDx=0;exitDy=0;exitPerimeter=0;entryX=0.5;entryY=0;entryDx=0;entryDy=0;" parent="1" source="65hNuTu4E9DAibyKRNxj-4" target="1_yibrZAErBl6fD4HhNc-21" edge="1">
          <mxGeometry width="160" relative="1" as="geometry">
            <mxPoint x="790" y="480" as="sourcePoint" />
            <mxPoint x="950" y="480" as="targetPoint" />
          </mxGeometry>
        </mxCell>
        <mxCell id="1_yibrZAErBl6fD4HhNc-49" value="" style="endArrow=open;endFill=1;endSize=12;html=1;rounded=0;exitX=0.021;exitY=0.286;exitDx=0;exitDy=0;exitPerimeter=0;entryX=1.006;entryY=0.134;entryDx=0;entryDy=0;entryPerimeter=0;" parent="1" source="65hNuTu4E9DAibyKRNxj-8" target="1_yibrZAErBl6fD4HhNc-24" edge="1">
          <mxGeometry width="160" relative="1" as="geometry">
            <mxPoint x="790" y="480" as="sourcePoint" />
            <mxPoint x="950" y="480" as="targetPoint" />
          </mxGeometry>
        </mxCell>
        <mxCell id="1_yibrZAErBl6fD4HhNc-50" value="" style="endArrow=open;endFill=1;endSize=12;html=1;rounded=0;entryX=0.5;entryY=1.016;entryDx=0;entryDy=0;entryPerimeter=0;exitX=0.5;exitY=0;exitDx=0;exitDy=0;" parent="1" source="65hNuTu4E9DAibyKRNxj-9" target="1_yibrZAErBl6fD4HhNc-28" edge="1">
          <mxGeometry width="160" relative="1" as="geometry">
            <mxPoint x="730" y="170" as="sourcePoint" />
            <mxPoint x="890" y="170" as="targetPoint" />
          </mxGeometry>
        </mxCell>
        <mxCell id="1_yibrZAErBl6fD4HhNc-51" value="" style="endArrow=open;endFill=1;endSize=12;html=1;rounded=0;entryX=1;entryY=0.5;entryDx=0;entryDy=0;exitX=-0.013;exitY=0.915;exitDx=0;exitDy=0;exitPerimeter=0;" parent="1" source="1_yibrZAErBl6fD4HhNc-18" target="65hNuTu4E9DAibyKRNxj-8" edge="1">
          <mxGeometry width="160" relative="1" as="geometry">
            <mxPoint x="790" y="790" as="sourcePoint" />
            <mxPoint x="950" y="790" as="targetPoint" />
          </mxGeometry>
        </mxCell>
        <mxCell id="1_yibrZAErBl6fD4HhNc-52" value="" style="endArrow=open;endSize=12;dashed=1;html=1;rounded=0;exitX=0.658;exitY=1.059;exitDx=0;exitDy=0;exitPerimeter=0;entryX=-0.02;entryY=0.754;entryDx=0;entryDy=0;entryPerimeter=0;" parent="1" source="1_yibrZAErBl6fD4HhNc-12" target="1_yibrZAErBl6fD4HhNc-18" edge="1">
          <mxGeometry width="160" relative="1" as="geometry">
            <mxPoint x="1190" y="730" as="sourcePoint" />
            <mxPoint x="1350" y="730" as="targetPoint" />
          </mxGeometry>
        </mxCell>
        <mxCell id="1_yibrZAErBl6fD4HhNc-53" value="" style="endArrow=open;endSize=12;dashed=1;html=1;rounded=0;exitX=0.515;exitY=1.041;exitDx=0;exitDy=0;exitPerimeter=0;entryX=0.59;entryY=0.001;entryDx=0;entryDy=0;entryPerimeter=0;" parent="1" source="1_yibrZAErBl6fD4HhNc-16" target="1_yibrZAErBl6fD4HhNc-17" edge="1">
          <mxGeometry width="160" relative="1" as="geometry">
            <mxPoint x="1055" y="463" as="sourcePoint" />
            <mxPoint x="1457" y="817" as="targetPoint" />
          </mxGeometry>
        </mxCell>
        <mxCell id="1_yibrZAErBl6fD4HhNc-54" value="" style="endArrow=open;endSize=12;dashed=1;html=1;rounded=0;exitX=0.513;exitY=1.033;exitDx=0;exitDy=0;exitPerimeter=0;entryX=0.25;entryY=0;entryDx=0;entryDy=0;" parent="1" source="1_yibrZAErBl6fD4HhNc-8" target="1_yibrZAErBl6fD4HhNc-17" edge="1">
          <mxGeometry width="160" relative="1" as="geometry">
            <mxPoint x="1065" y="473" as="sourcePoint" />
            <mxPoint x="1467" y="827" as="targetPoint" />
          </mxGeometry>
        </mxCell>
        <mxCell id="1_yibrZAErBl6fD4HhNc-59" value="" style="endArrow=block;dashed=1;endFill=0;endSize=12;html=1;rounded=0;exitX=0.169;exitY=0.964;exitDx=0;exitDy=0;exitPerimeter=0;entryX=1;entryY=0.5;entryDx=0;entryDy=0;" parent="1" source="65hNuTu4E9DAibyKRNxj-12" target="1_yibrZAErBl6fD4HhNc-22" edge="1">
          <mxGeometry width="160" relative="1" as="geometry">
            <mxPoint x="740" y="450" as="sourcePoint" />
            <mxPoint x="900" y="450" as="targetPoint" />
          </mxGeometry>
        </mxCell>
        <mxCell id="1_yibrZAErBl6fD4HhNc-60" value="" style="endArrow=open;endFill=1;endSize=12;html=1;rounded=0;entryX=0.5;entryY=0;entryDx=0;entryDy=0;exitX=0.558;exitY=1.014;exitDx=0;exitDy=0;exitPerimeter=0;" parent="1" source="65hNuTu4E9DAibyKRNxj-12" target="65hNuTu4E9DAibyKRNxj-5" edge="1">
          <mxGeometry width="160" relative="1" as="geometry">
            <mxPoint x="740" y="480" as="sourcePoint" />
            <mxPoint x="900" y="480" as="targetPoint" />
          </mxGeometry>
        </mxCell>
        <mxCell id="1_yibrZAErBl6fD4HhNc-61" value="" style="endArrow=block;dashed=1;endFill=0;endSize=12;html=1;rounded=0;exitX=1;exitY=0.5;exitDx=0;exitDy=0;entryX=0.026;entryY=0.045;entryDx=0;entryDy=0;entryPerimeter=0;" parent="1" source="1_yibrZAErBl6fD4HhNc-2" target="65hNuTu4E9DAibyKRNxj-12" edge="1">
          <mxGeometry width="160" relative="1" as="geometry">
            <mxPoint x="740" y="480" as="sourcePoint" />
            <mxPoint x="900" y="480" as="targetPoint" />
          </mxGeometry>
        </mxCell>
      </root>
    </mxGraphModel>
  </diagram>
  <diagram id="jzT6BARRgr1fVSijrn7n" name="Діаграма станів та переходів (для системи)">
    <mxGraphModel dx="2775" dy="823" grid="1" gridSize="10" guides="1" tooltips="1" connect="1" arrows="1" fold="1" page="1" pageScale="1" pageWidth="1169" pageHeight="827" math="0" shadow="0">
      <root>
        <mxCell id="0" />
        <mxCell id="1" parent="0" />
        <mxCell id="lHtdP_zICOLpJXw_13DU-1" value="" style="ellipse;html=1;shape=startState;fillColor=#000000;strokeColor=#ff0000;" parent="1" vertex="1">
          <mxGeometry x="340" y="30" width="30" height="30" as="geometry" />
        </mxCell>
        <mxCell id="lHtdP_zICOLpJXw_13DU-2" value="" style="edgeStyle=orthogonalEdgeStyle;html=1;verticalAlign=bottom;endArrow=open;endSize=8;strokeColor=#ff0000;rounded=0;entryX=0.5;entryY=0;entryDx=0;entryDy=0;" parent="1" source="lHtdP_zICOLpJXw_13DU-1" target="lHtdP_zICOLpJXw_13DU-3" edge="1">
          <mxGeometry relative="1" as="geometry">
            <mxPoint x="355" y="120" as="targetPoint" />
          </mxGeometry>
        </mxCell>
        <mxCell id="BCc9k25FKfAvoHtEmt9S-2" style="edgeStyle=orthogonalEdgeStyle;rounded=0;orthogonalLoop=1;jettySize=auto;html=1;exitX=0.5;exitY=1;exitDx=0;exitDy=0;entryX=0.5;entryY=0;entryDx=0;entryDy=0;" edge="1" parent="1" source="lHtdP_zICOLpJXw_13DU-3" target="BCc9k25FKfAvoHtEmt9S-1">
          <mxGeometry relative="1" as="geometry" />
        </mxCell>
        <mxCell id="lHtdP_zICOLpJXw_13DU-3" value="Ініціалізація системи" style="rounded=1;whiteSpace=wrap;html=1;" parent="1" vertex="1">
          <mxGeometry x="293.75" y="100" width="122.5" height="40" as="geometry" />
        </mxCell>
        <mxCell id="lHtdP_zICOLpJXw_13DU-4" value="OnInit" style="text;align=center;fontStyle=1;verticalAlign=middle;spacingLeft=3;spacingRight=3;strokeColor=none;rotatable=0;points=[[0,0.5],[1,0.5]];portConstraint=eastwest;html=1;" parent="1" vertex="1">
          <mxGeometry x="340" y="60" width="80" height="26" as="geometry" />
        </mxCell>
        <mxCell id="BCc9k25FKfAvoHtEmt9S-4" style="edgeStyle=orthogonalEdgeStyle;rounded=0;orthogonalLoop=1;jettySize=auto;html=1;exitX=0.5;exitY=1;exitDx=0;exitDy=0;entryX=0.5;entryY=0;entryDx=0;entryDy=0;" edge="1" parent="1" source="BCc9k25FKfAvoHtEmt9S-1" target="BCc9k25FKfAvoHtEmt9S-3">
          <mxGeometry relative="1" as="geometry" />
        </mxCell>
        <mxCell id="BCc9k25FKfAvoHtEmt9S-1" value="&lt;p style=&quot;margin:0px;margin-top:4px;text-align:center;&quot;&gt;&lt;span style=&quot;background-color: transparent; color: light-dark(rgb(0, 0, 0), rgb(255, 255, 255));&quot;&gt;Самодіагностика та Завантаження Конфігурації&lt;/span&gt;&lt;/p&gt;&lt;hr size=&quot;1&quot; style=&quot;border-style:solid;&quot;&gt;&lt;div style=&quot;height:2px;&quot;&gt;&lt;pre&gt; entry / Запустити модуль самодіагностики&lt;br&gt;  do   / Перевірка працездатності компонентів та завантаження конфігурації&lt;br&gt;  exit / Конфігурацію завантажено&lt;/pre&gt;&lt;/div&gt;" style="verticalAlign=top;align=left;overflow=fill;html=1;whiteSpace=wrap;" vertex="1" parent="1">
          <mxGeometry x="92.5" y="200" width="525" height="100" as="geometry" />
        </mxCell>
        <mxCell id="BCc9k25FKfAvoHtEmt9S-6" style="edgeStyle=orthogonalEdgeStyle;rounded=0;orthogonalLoop=1;jettySize=auto;html=1;exitX=0.5;exitY=1;exitDx=0;exitDy=0;entryX=0.5;entryY=0;entryDx=0;entryDy=0;" edge="1" parent="1" source="BCc9k25FKfAvoHtEmt9S-3" target="BCc9k25FKfAvoHtEmt9S-5">
          <mxGeometry relative="1" as="geometry" />
        </mxCell>
        <mxCell id="WCHy5ODZxUzdYwfeVNA4-16" style="edgeStyle=orthogonalEdgeStyle;rounded=0;orthogonalLoop=1;jettySize=auto;html=1;exitX=0;exitY=0.5;exitDx=0;exitDy=0;entryX=1;entryY=0.5;entryDx=0;entryDy=0;" edge="1" parent="1" source="BCc9k25FKfAvoHtEmt9S-3" target="WCHy5ODZxUzdYwfeVNA4-14">
          <mxGeometry relative="1" as="geometry" />
        </mxCell>
        <mxCell id="BCc9k25FKfAvoHtEmt9S-3" value="&lt;p style=&quot;margin:0px;margin-top:4px;text-align:center;&quot;&gt;Прийом запитів та Вхідних Даних&lt;/p&gt;&lt;hr size=&quot;1&quot; style=&quot;border-style:solid;&quot;&gt;&lt;div style=&quot;height:2px;&quot;&gt;&lt;pre&gt;  do    / Прийом запитів від пасажирів і диспетчерів&lt;br&gt;  exit  / Запит отримано&lt;/pre&gt;&lt;/div&gt;" style="verticalAlign=top;align=left;overflow=fill;html=1;whiteSpace=wrap;" vertex="1" parent="1">
          <mxGeometry x="171.25" y="360" width="367.5" height="70" as="geometry" />
        </mxCell>
        <mxCell id="BCc9k25FKfAvoHtEmt9S-8" style="edgeStyle=orthogonalEdgeStyle;rounded=0;orthogonalLoop=1;jettySize=auto;html=1;exitX=0.5;exitY=1;exitDx=0;exitDy=0;entryX=0.5;entryY=0;entryDx=0;entryDy=0;" edge="1" parent="1" source="BCc9k25FKfAvoHtEmt9S-5" target="BCc9k25FKfAvoHtEmt9S-7">
          <mxGeometry relative="1" as="geometry">
            <mxPoint x="370" y="610" as="sourcePoint" />
          </mxGeometry>
        </mxCell>
        <mxCell id="BCc9k25FKfAvoHtEmt9S-5" value="&lt;p style=&quot;margin:0px;margin-top:4px;text-align:center;&quot;&gt;Валідація запитів та Фільтрація&lt;/p&gt;&lt;hr size=&quot;1&quot; style=&quot;border-style:solid;&quot;&gt;&lt;div style=&quot;height:2px;&quot;&gt;&lt;pre&gt; entry / Розпочати перевірку формату і параметрів запиту&lt;br&gt; do    / Валідація даних та фільтрація невірних запитів&lt;br&gt; exit  / Дані запиту валідні&lt;/pre&gt;&lt;/div&gt;" style="verticalAlign=top;align=left;overflow=fill;html=1;whiteSpace=wrap;" vertex="1" parent="1">
          <mxGeometry x="165" y="500" width="380" height="90" as="geometry" />
        </mxCell>
        <mxCell id="BCc9k25FKfAvoHtEmt9S-11" style="edgeStyle=orthogonalEdgeStyle;rounded=0;orthogonalLoop=1;jettySize=auto;html=1;exitX=0.5;exitY=1;exitDx=0;exitDy=0;entryX=0.5;entryY=0;entryDx=0;entryDy=0;" edge="1" parent="1" source="BCc9k25FKfAvoHtEmt9S-7" target="BCc9k25FKfAvoHtEmt9S-10">
          <mxGeometry relative="1" as="geometry" />
        </mxCell>
        <mxCell id="BCc9k25FKfAvoHtEmt9S-7" value="&lt;p style=&quot;margin:0px;margin-top:4px;text-align:center;&quot;&gt;Планування маршрутів і Розрахунок Оптимальних Шляхів&lt;/p&gt;&lt;hr size=&quot;1&quot; style=&quot;border-style:solid;&quot;&gt;&lt;div style=&quot;height:2px;&quot;&gt;&lt;pre&gt; entry / Ініціювати розрахунок маршруту&lt;br&gt; do    / Обчислення оптимального маршруту з урахуванням дорожніх умов і трафіку&lt;br&gt; exit  / Маршрут сформовано&lt;br&gt;&lt;/pre&gt;&lt;/div&gt;" style="verticalAlign=top;align=left;overflow=fill;html=1;whiteSpace=wrap;" vertex="1" parent="1">
          <mxGeometry x="90" y="690" width="530" height="100" as="geometry" />
        </mxCell>
        <mxCell id="WCHy5ODZxUzdYwfeVNA4-2" style="edgeStyle=orthogonalEdgeStyle;rounded=0;orthogonalLoop=1;jettySize=auto;html=1;exitX=0.5;exitY=1;exitDx=0;exitDy=0;entryX=0.5;entryY=0;entryDx=0;entryDy=0;" edge="1" parent="1" source="BCc9k25FKfAvoHtEmt9S-9" target="WCHy5ODZxUzdYwfeVNA4-1">
          <mxGeometry relative="1" as="geometry" />
        </mxCell>
        <mxCell id="BCc9k25FKfAvoHtEmt9S-9" value="&lt;p style=&quot;margin:0px;margin-top:4px;text-align:center;&quot;&gt;Початок перевезення та Виконання Рейсу&lt;/p&gt;&lt;hr size=&quot;1&quot; style=&quot;border-style:solid;&quot;&gt;&lt;div style=&quot;height:2px;&quot;&gt;&lt;pre&gt; entry / Підготувати транспортний засіб та пасажирів&lt;br&gt; do    / Посадка пасажирів та старт руху&lt;br&gt; exit  / Рух розпочато&lt;/pre&gt;&lt;/div&gt;" style="verticalAlign=top;align=left;overflow=fill;html=1;whiteSpace=wrap;" vertex="1" parent="1">
          <mxGeometry x="180" y="1060" width="350" height="90" as="geometry" />
        </mxCell>
        <mxCell id="BCc9k25FKfAvoHtEmt9S-12" style="edgeStyle=orthogonalEdgeStyle;rounded=0;orthogonalLoop=1;jettySize=auto;html=1;exitX=0.5;exitY=1;exitDx=0;exitDy=0;entryX=0.5;entryY=0;entryDx=0;entryDy=0;" edge="1" parent="1" source="BCc9k25FKfAvoHtEmt9S-10" target="BCc9k25FKfAvoHtEmt9S-9">
          <mxGeometry relative="1" as="geometry" />
        </mxCell>
        <mxCell id="BCc9k25FKfAvoHtEmt9S-13" value="" style="edgeStyle=orthogonalEdgeStyle;rounded=0;orthogonalLoop=1;jettySize=auto;html=1;" edge="1" parent="1" source="BCc9k25FKfAvoHtEmt9S-10" target="BCc9k25FKfAvoHtEmt9S-9">
          <mxGeometry relative="1" as="geometry" />
        </mxCell>
        <mxCell id="BCc9k25FKfAvoHtEmt9S-10" value="&lt;p style=&quot;margin:0px;margin-top:4px;text-align:center;&quot;&gt;Диспетчеризація та Розподіл Транспортних Засобів&lt;/p&gt;&lt;hr size=&quot;1&quot; style=&quot;border-style:solid;&quot;&gt;&lt;div style=&quot;height:2px;&quot;&gt;&lt;pre&gt; entry / Отримати розрахований маршрут, підготувати завдання&lt;br&gt; do    / Розподіл завдань серед транспортних засобів та інформування диспетчерів&lt;br&gt; exit  / Завдання прийнято транспортним засобом&lt;/pre&gt;&lt;/div&gt;" style="verticalAlign=top;align=left;overflow=fill;html=1;whiteSpace=wrap;" vertex="1" parent="1">
          <mxGeometry x="90" y="880" width="530" height="90" as="geometry" />
        </mxCell>
        <mxCell id="WCHy5ODZxUzdYwfeVNA4-24" style="edgeStyle=orthogonalEdgeStyle;rounded=0;orthogonalLoop=1;jettySize=auto;html=1;exitX=0.5;exitY=1;exitDx=0;exitDy=0;entryX=0.5;entryY=0;entryDx=0;entryDy=0;" edge="1" parent="1" source="WCHy5ODZxUzdYwfeVNA4-1" target="WCHy5ODZxUzdYwfeVNA4-3">
          <mxGeometry relative="1" as="geometry" />
        </mxCell>
        <mxCell id="WCHy5ODZxUzdYwfeVNA4-25" style="edgeStyle=orthogonalEdgeStyle;rounded=0;orthogonalLoop=1;jettySize=auto;html=1;exitX=1;exitY=0.5;exitDx=0;exitDy=0;entryX=0.5;entryY=1;entryDx=0;entryDy=0;" edge="1" parent="1" source="WCHy5ODZxUzdYwfeVNA4-1" target="WCHy5ODZxUzdYwfeVNA4-6">
          <mxGeometry relative="1" as="geometry" />
        </mxCell>
        <mxCell id="WCHy5ODZxUzdYwfeVNA4-1" value="&lt;p style=&quot;margin:0px;margin-top:4px;text-align:center;&quot;&gt;Реальний моніторинг, Контроль та Адаптація&lt;br&gt;&lt;/p&gt;&lt;hr size=&quot;1&quot; style=&quot;border-style:solid;&quot;&gt;&lt;div style=&quot;height:2px;&quot;&gt;&lt;pre&gt; entry / Активувати GPS-моніторинг&lt;br&gt; do    / Відстеження руху, контроль затримок, оновлення параметрів&lt;br&gt; exit  / Дані зібрано&lt;/pre&gt;&lt;/div&gt;" style="verticalAlign=top;align=left;overflow=fill;html=1;whiteSpace=wrap;" vertex="1" parent="1">
          <mxGeometry x="130" y="1240" width="450" height="90" as="geometry" />
        </mxCell>
        <mxCell id="WCHy5ODZxUzdYwfeVNA4-3" value="&lt;p style=&quot;margin:0px;margin-top:4px;text-align:center;&quot;&gt;Обробка інцидентів та Аварійних Ситуацій&lt;/p&gt;&lt;hr size=&quot;1&quot; style=&quot;border-style:solid;&quot;&gt;&lt;div style=&quot;height:2px;&quot;&gt;&lt;pre&gt; entry / Запустити аварійний протокол та сповістити диспетчера&lt;br&gt; do    / Реагувати на технічні несправності і аварійні ситуації&lt;br&gt; exit  / Інцидент усунуто&lt;/pre&gt;&lt;/div&gt;" style="verticalAlign=top;align=left;overflow=fill;html=1;whiteSpace=wrap;" vertex="1" parent="1">
          <mxGeometry x="130" y="1450" width="450" height="89.5" as="geometry" />
        </mxCell>
        <mxCell id="WCHy5ODZxUzdYwfeVNA4-9" style="edgeStyle=orthogonalEdgeStyle;rounded=0;orthogonalLoop=1;jettySize=auto;html=1;exitX=0.5;exitY=0;exitDx=0;exitDy=0;" edge="1" parent="1" source="WCHy5ODZxUzdYwfeVNA4-6" target="WCHy5ODZxUzdYwfeVNA4-8">
          <mxGeometry relative="1" as="geometry" />
        </mxCell>
        <mxCell id="WCHy5ODZxUzdYwfeVNA4-6" value="&lt;p style=&quot;margin:0px;margin-top:4px;text-align:center;&quot;&gt;Завершення операцій, Архівація Даних та Формування Звітів&lt;/p&gt;&lt;hr size=&quot;1&quot; style=&quot;border-style:solid;&quot;&gt;&lt;div style=&quot;height:2px;&quot;&gt;&lt;pre&gt; entry / Зафіксувати результати перевезення&lt;br&gt; do    / Архівація історичних даних та формування звітів&lt;br&gt; exit  / Операцію завершено&lt;/pre&gt;&lt;/div&gt;" style="verticalAlign=top;align=left;overflow=fill;html=1;whiteSpace=wrap;" vertex="1" parent="1">
          <mxGeometry x="710" y="1052.5" width="390" height="85" as="geometry" />
        </mxCell>
        <mxCell id="WCHy5ODZxUzdYwfeVNA4-10" style="edgeStyle=orthogonalEdgeStyle;rounded=0;orthogonalLoop=1;jettySize=auto;html=1;exitX=0.5;exitY=0;exitDx=0;exitDy=0;entryX=1;entryY=0.5;entryDx=0;entryDy=0;" edge="1" parent="1" source="WCHy5ODZxUzdYwfeVNA4-8" target="BCc9k25FKfAvoHtEmt9S-3">
          <mxGeometry relative="1" as="geometry" />
        </mxCell>
        <mxCell id="WCHy5ODZxUzdYwfeVNA4-8" value="&lt;p style=&quot;margin:0px;margin-top:4px;text-align:center;&quot;&gt;Аналіз операцій та Зворотній зв&#39;язок&lt;/p&gt;&lt;hr size=&quot;1&quot; style=&quot;border-style:solid;&quot;&gt;&lt;div style=&quot;height:2px;&quot;&gt;&lt;pre&gt; entry / Запустити модуль аналізу ефективності&lt;br&gt; do    / Генерація рекомендацій та оптимізація процесів&lt;br&gt; exit  / Аналіз завершено&lt;/pre&gt;&lt;/div&gt;" style="verticalAlign=top;align=left;overflow=fill;html=1;whiteSpace=wrap;" vertex="1" parent="1">
          <mxGeometry x="710" y="610" width="390" height="90" as="geometry" />
        </mxCell>
        <mxCell id="WCHy5ODZxUzdYwfeVNA4-13" value="" style="ellipse;html=1;shape=endState;fillColor=#000000;strokeColor=#ff0000;" vertex="1" parent="1">
          <mxGeometry x="-760" y="380" width="30" height="30" as="geometry" />
        </mxCell>
        <mxCell id="WCHy5ODZxUzdYwfeVNA4-17" style="edgeStyle=orthogonalEdgeStyle;rounded=0;orthogonalLoop=1;jettySize=auto;html=1;exitX=0;exitY=0.5;exitDx=0;exitDy=0;entryX=1;entryY=0.5;entryDx=0;entryDy=0;" edge="1" parent="1" source="WCHy5ODZxUzdYwfeVNA4-14" target="WCHy5ODZxUzdYwfeVNA4-13">
          <mxGeometry relative="1" as="geometry">
            <mxPoint x="-499" y="395" as="sourcePoint" />
          </mxGeometry>
        </mxCell>
        <mxCell id="WCHy5ODZxUzdYwfeVNA4-14" value="&lt;p style=&quot;margin:0px;margin-top:4px;text-align:center;&quot;&gt;Завершення роботи&lt;/p&gt;&lt;hr size=&quot;1&quot; style=&quot;border-style:solid;&quot;&gt;&lt;pre&gt; entry / Підготовка до завершення: збір останніх даних, припинення з&#39;єднань&lt;br&gt; do    / Виконання процесу завершення: збереження архіву, формування звіту&lt;br&gt; exit  / Система успішно завершила роботу&lt;/pre&gt;&lt;div style=&quot;height:2px;&quot;&gt;&lt;/div&gt;" style="verticalAlign=top;align=left;overflow=fill;html=1;whiteSpace=wrap;" vertex="1" parent="1">
          <mxGeometry x="-590" y="352.5" width="510" height="85" as="geometry" />
        </mxCell>
        <mxCell id="WCHy5ODZxUzdYwfeVNA4-23" style="edgeStyle=orthogonalEdgeStyle;rounded=0;orthogonalLoop=1;jettySize=auto;html=1;exitX=0;exitY=0.25;exitDx=0;exitDy=0;entryX=0;entryY=0.75;entryDx=0;entryDy=0;" edge="1" parent="1" source="WCHy5ODZxUzdYwfeVNA4-1" target="WCHy5ODZxUzdYwfeVNA4-1">
          <mxGeometry relative="1" as="geometry">
            <Array as="points">
              <mxPoint x="69" y="1262" />
              <mxPoint x="69" y="1308" />
            </Array>
          </mxGeometry>
        </mxCell>
        <mxCell id="WCHy5ODZxUzdYwfeVNA4-28" value="  &lt;br/&gt;  Старт системи ініційовано() / Створити первинне з’єднання" style="text;align=center;fontStyle=1;verticalAlign=middle;spacingLeft=3;spacingRight=3;strokeColor=none;rotatable=0;points=[[0,0.5],[1,0.5]];portConstraint=eastwest;html=1;" vertex="1" parent="1">
          <mxGeometry x="490" y="140" width="80" height="26" as="geometry" />
        </mxCell>
        <mxCell id="WCHy5ODZxUzdYwfeVNA4-29" value="Ініціалізація завершена() / Завантажити налаштування з файлу" style="text;whiteSpace=wrap;html=1;" vertex="1" parent="1">
          <mxGeometry x="370" y="310" width="370" height="50" as="geometry" />
        </mxCell>
        <mxCell id="WCHy5ODZxUzdYwfeVNA4-30" value="Запит отримано()[Дані запиту валідні (формат, параметри, часові межі)]/Запустити процедуру фільтрації та валідації" style="text;whiteSpace=wrap;html=1;" vertex="1" parent="1">
          <mxGeometry x="360" y="437.5" width="390" height="50" as="geometry" />
        </mxCell>
        <mxCell id="WCHy5ODZxUzdYwfeVNA4-31" value="Запит пройшов валідацію() / Передати дані модулю маршрутизації та розрахувати оптимальний шлях" style="text;whiteSpace=wrap;html=1;" vertex="1" parent="1">
          <mxGeometry x="360" y="610" width="350" height="50" as="geometry" />
        </mxCell>
        <mxCell id="WCHy5ODZxUzdYwfeVNA4-32" value="Маршрут сформовано() / Розподілити завдання водіям і сповістити диспетчерів" style="text;whiteSpace=wrap;html=1;" vertex="1" parent="1">
          <mxGeometry x="360" y="810" width="480" height="40" as="geometry" />
        </mxCell>
        <mxCell id="WCHy5ODZxUzdYwfeVNA4-33" value="Завдання прийнято транспортним засобом() / Ініціювати старт рейсу, повідомити про початок перевезення" style="text;whiteSpace=wrap;html=1;" vertex="1" parent="1">
          <mxGeometry x="360" y="990" width="420" height="50" as="geometry" />
        </mxCell>
        <mxCell id="WCHy5ODZxUzdYwfeVNA4-34" value="Рух розпочато() / Активувати модуль моніторингу" style="text;whiteSpace=wrap;html=1;" vertex="1" parent="1">
          <mxGeometry x="370" y="1180" width="310" height="40" as="geometry" />
        </mxCell>
        <mxCell id="WCHy5ODZxUzdYwfeVNA4-35" value="Виявлено незначну затримку()[Затримка не перевищує критичний поріг]/Оновити дані моніторингу та продовжити контроль" style="text;whiteSpace=wrap;html=1;" vertex="1" parent="1">
          <mxGeometry x="-190" y="1260" width="250" height="70" as="geometry" />
        </mxCell>
        <mxCell id="WCHy5ODZxUzdYwfeVNA4-36" value="Виявлено&amp;nbsp; інцидент()[Показники перевищують допустимі межі]/Запустити протокол" style="text;whiteSpace=wrap;html=1;" vertex="1" parent="1">
          <mxGeometry x="370" y="1370" width="470" height="50" as="geometry" />
        </mxCell>
        <mxCell id="WCHy5ODZxUzdYwfeVNA4-37" value="Перевезення завершено() / Зафіксувати результати операції, зберегти архів та згенерувати звіт" style="text;whiteSpace=wrap;html=1;" vertex="1" parent="1">
          <mxGeometry x="910" y="1190" width="310" height="50" as="geometry" />
        </mxCell>
        <mxCell id="WCHy5ODZxUzdYwfeVNA4-38" value="Запис сформовано() / Запустити модуль аналізу ефективності та оптимізації" style="text;whiteSpace=wrap;html=1;" vertex="1" parent="1">
          <mxGeometry x="910" y="860" width="280" height="40" as="geometry" />
        </mxCell>
        <mxCell id="WCHy5ODZxUzdYwfeVNA4-39" value="Аналіз завершено() / Повернути систему до прийому запитів" style="text;whiteSpace=wrap;html=1;" vertex="1" parent="1">
          <mxGeometry x="910" y="447.5" width="260" height="40" as="geometry" />
        </mxCell>
        <mxCell id="WCHy5ODZxUzdYwfeVNA4-40" value="Було вирішено завершити роботу()/ Запуск згортання всіх екранів" style="text;html=1;align=center;verticalAlign=middle;resizable=0;points=[];autosize=1;strokeColor=none;fillColor=none;" vertex="1" parent="1">
          <mxGeometry x="-160" y="447.5" width="390" height="30" as="geometry" />
        </mxCell>
        <mxCell id="WCHy5ODZxUzdYwfeVNA4-42" value="Було завершено роботу всіх систем&lt;div&gt;&lt;br&gt;&lt;/div&gt;" style="text;html=1;align=center;verticalAlign=middle;resizable=0;points=[];autosize=1;strokeColor=none;fillColor=none;" vertex="1" parent="1">
          <mxGeometry x="-770" y="447.5" width="220" height="40" as="geometry" />
        </mxCell>
      </root>
    </mxGraphModel>
  </diagram>
  <diagram id="5hUGrMWfDWbG3s95UIt4" name="Діаграма станів та переходів (частинно)">
    <mxGraphModel dx="1491" dy="764" grid="1" gridSize="10" guides="1" tooltips="1" connect="1" arrows="1" fold="1" page="1" pageScale="1" pageWidth="1169" pageHeight="827" math="0" shadow="0">
      <root>
        <mxCell id="0" />
        <mxCell id="1" parent="0" />
        <mxCell id="HuIk36xePY5iVad0UUYz-2" value="" style="ellipse;html=1;shape=startState;fillColor=#000000;strokeColor=#ff0000;" vertex="1" parent="1">
          <mxGeometry x="495" y="10" width="30" height="30" as="geometry" />
        </mxCell>
        <mxCell id="HuIk36xePY5iVad0UUYz-3" value="" style="edgeStyle=orthogonalEdgeStyle;html=1;verticalAlign=bottom;endArrow=open;endSize=8;strokeColor=#ff0000;rounded=0;entryX=0.5;entryY=0;entryDx=0;entryDy=0;" edge="1" source="HuIk36xePY5iVad0UUYz-2" parent="1" target="HuIk36xePY5iVad0UUYz-4">
          <mxGeometry relative="1" as="geometry">
            <mxPoint x="510" y="20" as="targetPoint" />
          </mxGeometry>
        </mxCell>
        <mxCell id="HuIk36xePY5iVad0UUYz-7" style="edgeStyle=orthogonalEdgeStyle;rounded=0;orthogonalLoop=1;jettySize=auto;html=1;exitX=0.5;exitY=1;exitDx=0;exitDy=0;entryX=0.5;entryY=0;entryDx=0;entryDy=0;" edge="1" parent="1" source="HuIk36xePY5iVad0UUYz-4" target="HuIk36xePY5iVad0UUYz-6">
          <mxGeometry relative="1" as="geometry" />
        </mxCell>
        <mxCell id="HuIk36xePY5iVad0UUYz-4" value="&lt;p style=&quot;margin:0px;margin-top:4px;text-align:center;&quot;&gt;Введення деталей поїздки&lt;/p&gt;&lt;hr size=&quot;1&quot; style=&quot;border-style:solid;&quot;&gt;&lt;div style=&quot;height:2px;&quot;&gt;&amp;nbsp; &lt;span style=&quot;background-color: transparent; color: light-dark(rgb(0, 0, 0), rgb(255, 255, 255));&quot;&gt;entry&amp;nbsp; &amp;nbsp; /&amp;nbsp;&amp;nbsp;&lt;/span&gt;&lt;span style=&quot;background-color: transparent; color: light-dark(rgb(0, 0, 0), rgb(255, 255, 255));&quot;&gt;Відкрити поле для введення початкової точки та пункту призначення&lt;/span&gt;&lt;/div&gt;&lt;div style=&quot;height: 2px;&quot;&gt;&lt;pre&gt; do    / Користувач вводить дані&lt;br&gt; exit  / Перевірка валідності введених даних&lt;/pre&gt;&lt;/div&gt;&lt;div style=&quot;height:2px;&quot;&gt;&lt;br&gt;&lt;/div&gt;&lt;div style=&quot;height:2px;&quot;&gt;&lt;br&gt;&lt;/div&gt;&lt;div style=&quot;height:2px;&quot;&gt;&lt;br&gt;&lt;/div&gt;&lt;div style=&quot;height:2px;&quot;&gt;&lt;br&gt;&lt;/div&gt;&lt;div style=&quot;height:2px;&quot;&gt;&lt;br&gt;&lt;/div&gt;&lt;div style=&quot;height:2px;&quot;&gt;&lt;br&gt;&lt;/div&gt;&lt;div style=&quot;height:2px;&quot;&gt;&lt;br&gt;&lt;/div&gt;&lt;div style=&quot;height:2px;&quot;&gt;&amp;nbsp; &amp;nbsp; &amp;nbsp;&lt;/div&gt;" style="verticalAlign=top;align=left;overflow=fill;html=1;whiteSpace=wrap;" vertex="1" parent="1">
          <mxGeometry x="286.25" y="80" width="447.5" height="90" as="geometry" />
        </mxCell>
        <mxCell id="HuIk36xePY5iVad0UUYz-9" style="edgeStyle=orthogonalEdgeStyle;rounded=0;orthogonalLoop=1;jettySize=auto;html=1;exitX=0.5;exitY=1;exitDx=0;exitDy=0;entryX=0.5;entryY=0;entryDx=0;entryDy=0;" edge="1" parent="1" source="HuIk36xePY5iVad0UUYz-6" target="HuIk36xePY5iVad0UUYz-8">
          <mxGeometry relative="1" as="geometry" />
        </mxCell>
        <mxCell id="HuIk36xePY5iVad0UUYz-6" value="&lt;p style=&quot;margin:0px;margin-top:4px;text-align:center;&quot;&gt;&amp;nbsp;Обчислення оптимального маршруту&lt;/p&gt;&lt;hr size=&quot;1&quot; style=&quot;border-style:solid;&quot;&gt;&lt;div style=&quot;height:2px;&quot;&gt;&lt;div style=&quot;height: 2px;&quot;&gt;&lt;span style=&quot;background-color: transparent; color: light-dark(rgb(0, 0, 0), rgb(255, 255, 255));&quot;&gt;&amp;nbsp; entry&amp;nbsp; &amp;nbsp; /&amp;nbsp;&amp;nbsp;&lt;/span&gt;&lt;span style=&quot;background-color: transparent; color: light-dark(rgb(0, 0, 0), rgb(255, 255, 255));&quot;&gt;Ініціалізувати модуль розрахунку маршруту&lt;/span&gt;&lt;/div&gt;&lt;div style=&quot;height: 2px;&quot;&gt;&lt;pre&gt; do    / Обчислення оптимального шляху з врахуванням трафіку, часу&lt;br&gt; exit  / Збереження розрахованого маршруту в тимчасову пам&#39;ять&lt;/pre&gt;&lt;/div&gt;&lt;/div&gt;" style="verticalAlign=top;align=left;overflow=fill;html=1;whiteSpace=wrap;" vertex="1" parent="1">
          <mxGeometry x="290" y="230" width="440" height="80" as="geometry" />
        </mxCell>
        <mxCell id="HuIk36xePY5iVad0UUYz-11" style="edgeStyle=orthogonalEdgeStyle;rounded=0;orthogonalLoop=1;jettySize=auto;html=1;exitX=0.5;exitY=1;exitDx=0;exitDy=0;entryX=0.5;entryY=0;entryDx=0;entryDy=0;" edge="1" parent="1" source="HuIk36xePY5iVad0UUYz-8" target="HuIk36xePY5iVad0UUYz-10">
          <mxGeometry relative="1" as="geometry" />
        </mxCell>
        <mxCell id="HuIk36xePY5iVad0UUYz-8" value="&lt;p style=&quot;margin:0px;margin-top:4px;text-align:center;&quot;&gt;&amp;nbsp;Перегляд запропонованого маршруту&lt;/p&gt;&lt;hr size=&quot;1&quot; style=&quot;border-style:solid;&quot;&gt;&lt;div style=&quot;height:2px;&quot;&gt;&lt;div style=&quot;height: 2px;&quot;&gt;&lt;span style=&quot;background-color: transparent; color: light-dark(rgb(0, 0, 0), rgb(255, 255, 255));&quot;&gt;&amp;nbsp; entry&amp;nbsp; &amp;nbsp; /&amp;nbsp;&amp;nbsp;&lt;/span&gt;&lt;span style=&quot;background-color: transparent; color: light-dark(rgb(0, 0, 0), rgb(255, 255, 255));&quot;&gt;Завантажити розрахований маршрут для відображення&lt;/span&gt;&lt;/div&gt;&lt;div style=&quot;height: 2px;&quot;&gt;&lt;pre&gt; do    / Візуалізація маршруту на карті, показ ключових точок&lt;br&gt; exit  / Очікування підтвердження або редагування&lt;/pre&gt;&lt;/div&gt;&lt;/div&gt;" style="verticalAlign=top;align=left;overflow=fill;html=1;whiteSpace=wrap;" vertex="1" parent="1">
          <mxGeometry x="305" y="370" width="410" height="80" as="geometry" />
        </mxCell>
        <mxCell id="HuIk36xePY5iVad0UUYz-13" style="edgeStyle=orthogonalEdgeStyle;rounded=0;orthogonalLoop=1;jettySize=auto;html=1;exitX=0.5;exitY=1;exitDx=0;exitDy=0;entryX=0.5;entryY=0;entryDx=0;entryDy=0;" edge="1" parent="1" source="HuIk36xePY5iVad0UUYz-10" target="HuIk36xePY5iVad0UUYz-12">
          <mxGeometry relative="1" as="geometry" />
        </mxCell>
        <mxCell id="HuIk36xePY5iVad0UUYz-10" value="&lt;p style=&quot;margin:0px;margin-top:4px;text-align:center;&quot;&gt;Підтвердження/Редагування маршруту&lt;/p&gt;&lt;hr size=&quot;1&quot; style=&quot;border-style:solid;&quot;&gt;&lt;div style=&quot;height:2px;&quot;&gt;&lt;div style=&quot;height: 2px;&quot;&gt;&lt;span style=&quot;background-color: transparent; color: light-dark(rgb(0, 0, 0), rgb(255, 255, 255));&quot;&gt;&amp;nbsp; entry&amp;nbsp; &amp;nbsp; /&amp;nbsp;&amp;nbsp;&lt;/span&gt;&lt;span style=&quot;background-color: transparent; color: light-dark(rgb(0, 0, 0), rgb(255, 255, 255));&quot;&gt;Надати користувачу можливість підтвердити або редагувати маршрут&lt;/span&gt;&lt;/div&gt;&lt;div style=&quot;height: 2px;&quot;&gt;&lt;pre&gt; do    / Виконання редагування, якщо користувач змінює маршрут&lt;br&gt; exit  / Маршрут підтверджено або знову розраховано&lt;/pre&gt;&lt;/div&gt;&lt;/div&gt;" style="verticalAlign=top;align=left;overflow=fill;html=1;whiteSpace=wrap;" vertex="1" parent="1">
          <mxGeometry x="280" y="510" width="460" height="80" as="geometry" />
        </mxCell>
        <mxCell id="HuIk36xePY5iVad0UUYz-16" style="edgeStyle=orthogonalEdgeStyle;rounded=0;orthogonalLoop=1;jettySize=auto;html=1;exitX=0.5;exitY=1;exitDx=0;exitDy=0;entryX=0.5;entryY=0;entryDx=0;entryDy=0;" edge="1" parent="1" source="HuIk36xePY5iVad0UUYz-12" target="HuIk36xePY5iVad0UUYz-14">
          <mxGeometry relative="1" as="geometry" />
        </mxCell>
        <mxCell id="HuIk36xePY5iVad0UUYz-12" value="&lt;p style=&quot;margin:0px;margin-top:4px;text-align:center;&quot;&gt;Відправка маршруту диспетчеру&lt;/p&gt;&lt;hr size=&quot;1&quot; style=&quot;border-style:solid;&quot;&gt;&lt;div style=&quot;height:2px;&quot;&gt;&lt;div style=&quot;height: 2px;&quot;&gt;&lt;span style=&quot;background-color: transparent; color: light-dark(rgb(0, 0, 0), rgb(255, 255, 255));&quot;&gt;&amp;nbsp; entry&amp;nbsp; &amp;nbsp; /&amp;nbsp;&amp;nbsp;&lt;/span&gt;&lt;span style=&quot;background-color: transparent; color: light-dark(rgb(0, 0, 0), rgb(255, 255, 255));&quot;&gt;Підготувати дані маршруту для відправки&lt;/span&gt;&lt;/div&gt;&lt;div style=&quot;height: 2px;&quot;&gt;&lt;pre&gt; do    / Відправка підтвердженого маршруту до системи диспетчеризації&lt;br&gt; exit  / Повідомлення про успішне завершення процесу&lt;/pre&gt;&lt;/div&gt;&lt;/div&gt;" style="verticalAlign=top;align=left;overflow=fill;html=1;whiteSpace=wrap;" vertex="1" parent="1">
          <mxGeometry x="280" y="660" width="460" height="90" as="geometry" />
        </mxCell>
        <mxCell id="HuIk36xePY5iVad0UUYz-14" value="" style="ellipse;html=1;shape=endState;fillColor=#000000;strokeColor=#ff0000;" vertex="1" parent="1">
          <mxGeometry x="495" y="790" width="30" height="30" as="geometry" />
        </mxCell>
        <mxCell id="HuIk36xePY5iVad0UUYz-18" value="Запуск застосунку() / Відобразити форму введення даних" style="text;whiteSpace=wrap;html=1;" vertex="1" parent="1">
          <mxGeometry x="522.5" y="40" width="350" height="40" as="geometry" />
        </mxCell>
        <mxCell id="HuIk36xePY5iVad0UUYz-19" value="Дані введено()[Дані валідні] / Обчислити маршрут" style="text;whiteSpace=wrap;html=1;" vertex="1" parent="1">
          <mxGeometry x="530" y="190" width="350" height="40" as="geometry" />
        </mxCell>
        <mxCell id="HuIk36xePY5iVad0UUYz-20" value="Маршрут розраховано() / Відобразити маршрут" style="text;whiteSpace=wrap;html=1;" vertex="1" parent="1">
          <mxGeometry x="555" y="313.5" width="300" height="40" as="geometry" />
        </mxCell>
        <mxCell id="HuIk36xePY5iVad0UUYz-21" value="Маршрут вибрано()(Пусто) / Надати можливість редагування або підтвердження" style="text;whiteSpace=wrap;html=1;" vertex="1" parent="1">
          <mxGeometry x="540" y="460" width="290" height="40" as="geometry" />
        </mxCell>
        <mxCell id="HuIk36xePY5iVad0UUYz-22" value="Редагування розпочато() / Повернути форму редагування даних" style="text;whiteSpace=wrap;html=1;" vertex="1" parent="1">
          <mxGeometry x="30" y="390" width="200" height="40" as="geometry" />
        </mxCell>
        <mxCell id="HuIk36xePY5iVad0UUYz-23" style="edgeStyle=orthogonalEdgeStyle;rounded=0;orthogonalLoop=1;jettySize=auto;html=1;exitX=0;exitY=0.25;exitDx=0;exitDy=0;entryX=0;entryY=0.75;entryDx=0;entryDy=0;" edge="1" parent="1" source="HuIk36xePY5iVad0UUYz-8" target="HuIk36xePY5iVad0UUYz-8">
          <mxGeometry relative="1" as="geometry">
            <Array as="points">
              <mxPoint x="280" y="385" />
              <mxPoint x="210" y="385" />
              <mxPoint x="210" y="437" />
              <mxPoint x="280" y="437" />
            </Array>
          </mxGeometry>
        </mxCell>
        <mxCell id="HuIk36xePY5iVad0UUYz-24" value="Підтвердження отримано()(Пусто) / Надіслати маршрут для обробки" style="text;whiteSpace=wrap;html=1;" vertex="1" parent="1">
          <mxGeometry x="540" y="600" width="290" height="40" as="geometry" />
        </mxCell>
        <mxCell id="HuIk36xePY5iVad0UUYz-25" value="Маршрут надіслано()(Пусто) / Завершити процес планування" style="text;whiteSpace=wrap;html=1;" vertex="1" parent="1">
          <mxGeometry x="555" y="750" width="285" height="40" as="geometry" />
        </mxCell>
      </root>
    </mxGraphModel>
  </diagram>
  <diagram id="FuxVFESO9oa83A9lnY8Q" name="Діаграма станів та переходів (2)">
    <mxGraphModel dx="949" dy="486" grid="1" gridSize="10" guides="1" tooltips="1" connect="1" arrows="1" fold="1" page="1" pageScale="1" pageWidth="1169" pageHeight="827" math="0" shadow="0">
      <root>
        <mxCell id="0" />
        <mxCell id="1" parent="0" />
        <mxCell id="HlGN6YP7k-fWLT3BYfY3-1" value="" style="ellipse;html=1;shape=startState;fillColor=#000000;strokeColor=#ff0000;" parent="1" vertex="1">
          <mxGeometry x="510" width="30" height="30" as="geometry" />
        </mxCell>
        <mxCell id="HlGN6YP7k-fWLT3BYfY3-2" value="" style="edgeStyle=orthogonalEdgeStyle;html=1;verticalAlign=bottom;endArrow=open;endSize=8;strokeColor=#ff0000;rounded=0;entryX=0.5;entryY=0;entryDx=0;entryDy=0;entryPerimeter=0;" parent="1" source="HlGN6YP7k-fWLT3BYfY3-1" target="HlGN6YP7k-fWLT3BYfY3-3" edge="1">
          <mxGeometry relative="1" as="geometry">
            <mxPoint x="525" y="90" as="targetPoint" />
          </mxGeometry>
        </mxCell>
        <mxCell id="HlGN6YP7k-fWLT3BYfY3-5" style="edgeStyle=orthogonalEdgeStyle;rounded=0;orthogonalLoop=1;jettySize=auto;html=1;exitX=0.5;exitY=1;exitDx=0;exitDy=0;entryX=0.5;entryY=0;entryDx=0;entryDy=0;" parent="1" source="HlGN6YP7k-fWLT3BYfY3-3" target="HlGN6YP7k-fWLT3BYfY3-4" edge="1">
          <mxGeometry relative="1" as="geometry" />
        </mxCell>
        <mxCell id="HlGN6YP7k-fWLT3BYfY3-3" value="&lt;p style=&quot;margin:0px;margin-top:4px;text-align:center;&quot;&gt;&amp;nbsp;Моніторинг трафіку&lt;/p&gt;&lt;hr size=&quot;1&quot; style=&quot;border-style:solid;&quot;&gt;&lt;div style=&quot;height:2px;&quot;&gt;&lt;div style=&quot;height: 2px;&quot;&gt;&lt;span style=&quot;background-color: transparent; color: light-dark(rgb(0, 0, 0), rgb(255, 255, 255));&quot;&gt;&amp;nbsp; entry&amp;nbsp; &amp;nbsp; /&amp;nbsp;&amp;nbsp;&lt;/span&gt;&lt;span style=&quot;background-color: transparent; color: light-dark(rgb(0, 0, 0), rgb(255, 255, 255));&quot;&gt;Ініціалізувати з’єднання з системою збору даних про дорожній рух&lt;/span&gt;&lt;/div&gt;&lt;div style=&quot;height: 2px;&quot;&gt;&lt;span style=&quot;background-color: transparent; color: light-dark(rgb(0, 0, 0), rgb(255, 255, 255));&quot;&gt;&lt;br&gt;&lt;/span&gt;&lt;/div&gt;&lt;div style=&quot;height: 2px;&quot;&gt;&lt;span style=&quot;background-color: transparent; color: light-dark(rgb(0, 0, 0), rgb(255, 255, 255));&quot;&gt;&lt;br&gt;&lt;/span&gt;&lt;/div&gt;&lt;div style=&quot;height: 2px;&quot;&gt;&lt;span style=&quot;background-color: transparent; color: light-dark(rgb(0, 0, 0), rgb(255, 255, 255));&quot;&gt;&lt;br&gt;&lt;/span&gt;&lt;/div&gt;&lt;div style=&quot;height: 2px;&quot;&gt;&lt;span style=&quot;background-color: transparent; color: light-dark(rgb(0, 0, 0), rgb(255, 255, 255));&quot;&gt;&lt;br&gt;&lt;/span&gt;&lt;/div&gt;&lt;div style=&quot;height: 2px;&quot;&gt;&lt;span style=&quot;background-color: transparent; color: light-dark(rgb(0, 0, 0), rgb(255, 255, 255));&quot;&gt;&lt;br&gt;&lt;/span&gt;&lt;/div&gt;&lt;div style=&quot;height: 2px;&quot;&gt;&lt;span style=&quot;background-color: transparent; color: light-dark(rgb(0, 0, 0), rgb(255, 255, 255));&quot;&gt;&amp;nbsp;&lt;/span&gt;&lt;/div&gt;&lt;div style=&quot;height: 2px;&quot;&gt;&lt;span style=&quot;background-color: transparent; color: light-dark(rgb(0, 0, 0), rgb(255, 255, 255));&quot;&gt;&lt;br&gt;&lt;/span&gt;&lt;/div&gt;&lt;div style=&quot;height: 2px;&quot;&gt;&lt;div style=&quot;height: 2px;&quot;&gt;&lt;span style=&quot;background-color: transparent; color: light-dark(rgb(0, 0, 0), rgb(255, 255, 255));&quot;&gt;&amp;nbsp; entry&amp;nbsp; &amp;nbsp; /&amp;nbsp;&amp;nbsp;&lt;/span&gt;&lt;span style=&quot;background-color: transparent; color: light-dark(rgb(0, 0, 0), rgb(255, 255, 255));&quot;&gt;Запустити прийом потокових даних (GPS, сенсори, API трафіку)&lt;/span&gt;&lt;/div&gt;&lt;div style=&quot;height: 2px;&quot;&gt;&lt;span style=&quot;background-color: transparent; color: light-dark(rgb(0, 0, 0), rgb(255, 255, 255));&quot;&gt;&lt;br&gt;&lt;/span&gt;&lt;/div&gt;&lt;div style=&quot;height: 2px;&quot;&gt;&lt;span style=&quot;background-color: transparent; color: light-dark(rgb(0, 0, 0), rgb(255, 255, 255));&quot;&gt;&lt;br&gt;&lt;/span&gt;&lt;/div&gt;&lt;div style=&quot;height: 2px;&quot;&gt;&lt;span style=&quot;background-color: transparent; color: light-dark(rgb(0, 0, 0), rgb(255, 255, 255));&quot;&gt;&lt;br&gt;&lt;/span&gt;&lt;/div&gt;&lt;/div&gt;&lt;div style=&quot;height: 2px;&quot;&gt;&lt;pre&gt; do    / Приймати дані про стан руху та аналізувати їх &lt;br&gt; exit  / Набір даних достатній для виявлення потенційних заторів&lt;/pre&gt;&lt;/div&gt;&lt;/div&gt;" style="verticalAlign=top;align=left;overflow=fill;html=1;whiteSpace=wrap;" parent="1" vertex="1">
          <mxGeometry x="308.75" y="83" width="432.5" height="90" as="geometry" />
        </mxCell>
        <mxCell id="HlGN6YP7k-fWLT3BYfY3-17" style="edgeStyle=orthogonalEdgeStyle;rounded=0;orthogonalLoop=1;jettySize=auto;html=1;exitX=0.5;exitY=1;exitDx=0;exitDy=0;entryX=0.5;entryY=0;entryDx=0;entryDy=0;" parent="1" source="HlGN6YP7k-fWLT3BYfY3-4" target="HlGN6YP7k-fWLT3BYfY3-6" edge="1">
          <mxGeometry relative="1" as="geometry" />
        </mxCell>
        <mxCell id="HlGN6YP7k-fWLT3BYfY3-4" value="&lt;p style=&quot;margin:0px;margin-top:4px;text-align:center;&quot;&gt;Виявлення заторів&lt;/p&gt;&lt;div style=&quot;height: 2px;&quot;&gt;&lt;span style=&quot;background-color: transparent; color: light-dark(rgb(0, 0, 0), rgb(255, 255, 255));&quot;&gt;&amp;nbsp;&lt;/span&gt;&lt;/div&gt;&lt;hr size=&quot;1&quot; style=&quot;border-style:solid;&quot;&gt;&lt;div style=&quot;height:2px;&quot;&gt;&lt;div style=&quot;height: 2px;&quot;&gt;&lt;span style=&quot;background-color: transparent; color: light-dark(rgb(0, 0, 0), rgb(255, 255, 255));&quot;&gt;&amp;nbsp; entry&amp;nbsp; &amp;nbsp; /&amp;nbsp;&amp;nbsp;&lt;/span&gt;&lt;span style=&quot;background-color: transparent; color: light-dark(rgb(0, 0, 0), rgb(255, 255, 255));&quot;&gt;Запустити сканування отриманих даних&lt;/span&gt;&lt;/div&gt;&lt;div style=&quot;height: 2px;&quot;&gt;&lt;pre&gt; do    / Визначити, чи є дані ознаками заторової ситуації&lt;br&gt;&lt;br&gt;&lt;/pre&gt;&lt;/div&gt;&lt;/div&gt;" style="verticalAlign=top;align=left;overflow=fill;html=1;whiteSpace=wrap;" parent="1" vertex="1">
          <mxGeometry x="335" y="230" width="380" height="70" as="geometry" />
        </mxCell>
        <mxCell id="HlGN6YP7k-fWLT3BYfY3-16" style="edgeStyle=orthogonalEdgeStyle;rounded=0;orthogonalLoop=1;jettySize=auto;html=1;exitX=0.5;exitY=1;exitDx=0;exitDy=0;entryX=0.5;entryY=0;entryDx=0;entryDy=0;" parent="1" source="HlGN6YP7k-fWLT3BYfY3-6" target="HlGN6YP7k-fWLT3BYfY3-7" edge="1">
          <mxGeometry relative="1" as="geometry" />
        </mxCell>
        <mxCell id="HlGN6YP7k-fWLT3BYfY3-6" value="&lt;p style=&quot;margin:0px;margin-top:4px;text-align:center;&quot;&gt;Аналіз заторів&lt;/p&gt;&lt;hr size=&quot;1&quot; style=&quot;border-style:solid;&quot;&gt;&lt;div style=&quot;height:2px;&quot;&gt;&lt;/div&gt;&lt;div style=&quot;height:2px;&quot;&gt;&lt;div style=&quot;height: 2px;&quot;&gt;&lt;span style=&quot;background-color: transparent; color: light-dark(rgb(0, 0, 0), rgb(255, 255, 255));&quot;&gt;&amp;nbsp; entry&amp;nbsp; &amp;nbsp; /&amp;nbsp;&amp;nbsp;&lt;/span&gt;&lt;span style=&quot;background-color: transparent; color: light-dark(rgb(0, 0, 0), rgb(255, 255, 255));&quot;&gt;Ініціалізувати алгоритми детального аналізу заторів на виявлених ділянках&lt;/span&gt;&lt;/div&gt;&lt;div style=&quot;height: 2px;&quot;&gt;&lt;pre&gt; do    / Оцінити характер заторів та hозрахувати параметри, які вплинуть на корекцію маршруту&lt;br&gt; exit  / Прийняти рішення&lt;/pre&gt;&lt;/div&gt;&lt;/div&gt;" style="verticalAlign=top;align=left;overflow=fill;html=1;whiteSpace=wrap;" parent="1" vertex="1">
          <mxGeometry x="215" y="360" width="620" height="80" as="geometry" />
        </mxCell>
        <mxCell id="HlGN6YP7k-fWLT3BYfY3-15" style="edgeStyle=orthogonalEdgeStyle;rounded=0;orthogonalLoop=1;jettySize=auto;html=1;exitX=0.5;exitY=1;exitDx=0;exitDy=0;entryX=0.5;entryY=0;entryDx=0;entryDy=0;" parent="1" source="HlGN6YP7k-fWLT3BYfY3-7" target="HlGN6YP7k-fWLT3BYfY3-8" edge="1">
          <mxGeometry relative="1" as="geometry">
            <mxPoint x="525" y="590" as="sourcePoint" />
          </mxGeometry>
        </mxCell>
        <mxCell id="HlGN6YP7k-fWLT3BYfY3-7" value="&lt;p style=&quot;margin:0px;margin-top:4px;text-align:center;&quot;&gt;Корекція маршруту&lt;/p&gt;&lt;hr size=&quot;1&quot; style=&quot;border-style:solid;&quot;&gt;&lt;div style=&quot;height:2px;&quot;&gt;&lt;div style=&quot;height: 2px;&quot;&gt;&lt;span style=&quot;background-color: transparent; color: light-dark(rgb(0, 0, 0), rgb(255, 255, 255));&quot;&gt;&amp;nbsp; entry&amp;nbsp; &amp;nbsp; /&amp;nbsp;&amp;nbsp;&lt;/span&gt;&lt;span style=&quot;background-color: transparent; color: light-dark(rgb(0, 0, 0), rgb(255, 255, 255));&quot;&gt;Ініціалізувати модуль перерахунку маршруту&lt;/span&gt;&lt;/div&gt;&lt;div style=&quot;height: 2px;&quot;&gt;&lt;pre&gt; do    / Розрахувати альтернативні маршрути, враховуючи нові умови дорожнього руху&lt;br&gt; exit  / Обчислити оптимальний варіант із зниженими показниками заторів&lt;/pre&gt;&lt;/div&gt;&lt;/div&gt;" style="verticalAlign=top;align=left;overflow=fill;html=1;whiteSpace=wrap;" parent="1" vertex="1">
          <mxGeometry x="250" y="520" width="550" height="80" as="geometry" />
        </mxCell>
        <mxCell id="HlGN6YP7k-fWLT3BYfY3-14" style="edgeStyle=orthogonalEdgeStyle;rounded=0;orthogonalLoop=1;jettySize=auto;html=1;exitX=0.5;exitY=1;exitDx=0;exitDy=0;entryX=0.5;entryY=0;entryDx=0;entryDy=0;" parent="1" source="HlGN6YP7k-fWLT3BYfY3-8" target="HlGN6YP7k-fWLT3BYfY3-9" edge="1">
          <mxGeometry relative="1" as="geometry" />
        </mxCell>
        <mxCell id="HlGN6YP7k-fWLT3BYfY3-8" value="&lt;p style=&quot;margin:0px;margin-top:4px;text-align:center;&quot;&gt;Перевірка нового маршруту&lt;/p&gt;&lt;hr size=&quot;1&quot; style=&quot;border-style:solid;&quot;&gt;&lt;div style=&quot;height:2px;&quot;&gt;&lt;div style=&quot;height: 2px;&quot;&gt;&lt;span style=&quot;background-color: transparent; color: light-dark(rgb(0, 0, 0), rgb(255, 255, 255));&quot;&gt;&amp;nbsp; entry&amp;nbsp; &amp;nbsp; /&amp;nbsp;&amp;nbsp;&lt;/span&gt;&lt;span style=&quot;background-color: transparent; color: light-dark(rgb(0, 0, 0), rgb(255, 255, 255));&quot;&gt;Ініціалізувати параметри валідації&lt;/span&gt;&lt;/div&gt;&lt;div style=&quot;height: 2px;&quot;&gt;&lt;pre&gt; do    / Провести порівняння розрахованого маршруту з пороговими значеннями&lt;br&gt; exit  / Прийняти рішення&lt;/pre&gt;&lt;/div&gt;&lt;/div&gt;" style="verticalAlign=top;align=left;overflow=fill;html=1;whiteSpace=wrap;" parent="1" vertex="1">
          <mxGeometry x="260" y="680" width="530" height="80" as="geometry" />
        </mxCell>
        <mxCell id="HlGN6YP7k-fWLT3BYfY3-13" style="edgeStyle=orthogonalEdgeStyle;rounded=0;orthogonalLoop=1;jettySize=auto;html=1;exitX=0.5;exitY=1;exitDx=0;exitDy=0;entryX=0.5;entryY=0;entryDx=0;entryDy=0;" parent="1" source="HlGN6YP7k-fWLT3BYfY3-9" target="HlGN6YP7k-fWLT3BYfY3-11" edge="1">
          <mxGeometry relative="1" as="geometry">
            <mxPoint x="525" y="1019.9999999999998" as="targetPoint" />
          </mxGeometry>
        </mxCell>
        <mxCell id="HlGN6YP7k-fWLT3BYfY3-9" value="&lt;p style=&quot;margin:0px;margin-top:4px;text-align:center;&quot;&gt;Оновлення маршруту&lt;/p&gt;&lt;hr size=&quot;1&quot; style=&quot;border-style:solid;&quot;&gt;&lt;div style=&quot;height:2px;&quot;&gt;&lt;div style=&quot;height: 2px;&quot;&gt;&lt;span style=&quot;background-color: transparent; color: light-dark(rgb(0, 0, 0), rgb(255, 255, 255));&quot;&gt;&amp;nbsp; entry&amp;nbsp; &amp;nbsp; /&amp;nbsp;&amp;nbsp;&lt;/span&gt;Ініціалізувати оновлення даних у системі&lt;span style=&quot;background-color: transparent; color: light-dark(rgb(0, 0, 0), rgb(255, 255, 255));&quot;&gt;&amp;nbsp;ділянках&lt;/span&gt;&lt;/div&gt;&lt;div style=&quot;height: 2px;&quot;&gt;&lt;pre&gt; do    / Внести нові параметри маршруту в базу даних та оновити інформацію&lt;br&gt; exit  / Завершити процес оновлення&lt;/pre&gt;&lt;/div&gt;&lt;/div&gt;" style="verticalAlign=top;align=left;overflow=fill;html=1;whiteSpace=wrap;" parent="1" vertex="1">
          <mxGeometry x="275" y="827" width="500" height="93" as="geometry" />
        </mxCell>
        <mxCell id="HlGN6YP7k-fWLT3BYfY3-11" value="" style="ellipse;html=1;shape=endState;fillColor=#000000;strokeColor=#ff0000;" parent="1" vertex="1">
          <mxGeometry x="510" y="990" width="30" height="30" as="geometry" />
        </mxCell>
        <mxCell id="HlGN6YP7k-fWLT3BYfY3-18" style="edgeStyle=orthogonalEdgeStyle;rounded=0;orthogonalLoop=1;jettySize=auto;html=1;exitX=0;exitY=0.25;exitDx=0;exitDy=0;" parent="1" edge="1">
          <mxGeometry relative="1" as="geometry">
            <mxPoint x="259.95" y="670" as="sourcePoint" />
            <mxPoint x="259.95" y="700.0526315789475" as="targetPoint" />
            <Array as="points">
              <mxPoint x="259.95" y="745" />
              <mxPoint x="169.95" y="745" />
              <mxPoint x="169.95" y="700" />
            </Array>
          </mxGeometry>
        </mxCell>
        <mxCell id="TV4dxdz8aLSdfZxNydNw-2" value="Дані отримано()[Виявлено підвищену завантаженість] / Визначити наявність заторів" style="text;whiteSpace=wrap;html=1;" parent="1" vertex="1">
          <mxGeometry x="586" y="173" width="320" height="40" as="geometry" />
        </mxCell>
        <mxCell id="TV4dxdz8aLSdfZxNydNw-3" value="Затор встановлено() / Проаналізувати ситуацію" style="text;whiteSpace=wrap;html=1;" parent="1" vertex="1">
          <mxGeometry x="590" y="320" width="340" height="30" as="geometry" />
        </mxCell>
        <mxCell id="TV4dxdz8aLSdfZxNydNw-4" value="Аналіз завершено() / Перерахувати маршрут" style="text;whiteSpace=wrap;html=1;" parent="1" vertex="1">
          <mxGeometry x="585" y="480" width="265" height="40" as="geometry" />
        </mxCell>
        <mxCell id="TV4dxdz8aLSdfZxNydNw-5" value="Маршрут перераховано() / Перевірити нові дані" style="text;whiteSpace=wrap;html=1;" parent="1" vertex="1">
          <mxGeometry x="590" y="620" width="210" height="40" as="geometry" />
        </mxCell>
        <mxCell id="TV4dxdz8aLSdfZxNydNw-6" value="Дані не валідні()[Помилка в розрахунку] / Повторити перевірку маршруту" style="text;whiteSpace=wrap;html=1;" parent="1" vertex="1">
          <mxGeometry x="30" y="740" width="260" height="40" as="geometry" />
        </mxCell>
        <mxCell id="TV4dxdz8aLSdfZxNydNw-7" value="Дані валідні() / Оновити маршрут в системі" style="text;whiteSpace=wrap;html=1;" parent="1" vertex="1">
          <mxGeometry x="590" y="790" width="245" height="40" as="geometry" />
        </mxCell>
        <mxCell id="TV4dxdz8aLSdfZxNydNw-9" value="Маршрут оновлено()/ Повернути моніторинг для подальшого аналізу" style="text;whiteSpace=wrap;html=1;" parent="1" vertex="1">
          <mxGeometry x="577.5" y="940" width="280" height="40" as="geometry" />
        </mxCell>
      </root>
    </mxGraphModel>
  </diagram>
  <diagram id="MYTWzNuv6f5v5XGzjoZw" name="Діаграма діяльності (1)">
    <mxGraphModel dx="2474" dy="669" grid="1" gridSize="10" guides="1" tooltips="1" connect="1" arrows="1" fold="1" page="1" pageScale="1" pageWidth="1169" pageHeight="827" math="0" shadow="0">
      <root>
        <mxCell id="0" />
        <mxCell id="1" parent="0" />
        <mxCell id="E5Fl1huvzpqKiBBrvRUE-1" value="" style="ellipse;html=1;shape=startState;fillColor=#000000;strokeColor=#ff0000;" parent="1" vertex="1">
          <mxGeometry x="420" y="10" width="30" height="30" as="geometry" />
        </mxCell>
        <mxCell id="E5Fl1huvzpqKiBBrvRUE-2" value="" style="edgeStyle=orthogonalEdgeStyle;html=1;verticalAlign=bottom;endArrow=open;endSize=8;strokeColor=#ff0000;rounded=0;entryX=0.5;entryY=0;entryDx=0;entryDy=0;" parent="1" source="E5Fl1huvzpqKiBBrvRUE-1" target="E5Fl1huvzpqKiBBrvRUE-3" edge="1">
          <mxGeometry relative="1" as="geometry">
            <mxPoint x="435" y="100" as="targetPoint" />
          </mxGeometry>
        </mxCell>
        <mxCell id="E5Fl1huvzpqKiBBrvRUE-5" style="edgeStyle=orthogonalEdgeStyle;rounded=0;orthogonalLoop=1;jettySize=auto;html=1;exitX=0.5;exitY=1;exitDx=0;exitDy=0;entryX=0.5;entryY=0;entryDx=0;entryDy=0;" parent="1" source="E5Fl1huvzpqKiBBrvRUE-3" target="E5Fl1huvzpqKiBBrvRUE-4" edge="1">
          <mxGeometry relative="1" as="geometry" />
        </mxCell>
        <mxCell id="E5Fl1huvzpqKiBBrvRUE-3" value="Користувач відкриває мобільний застосунок або веб-сайт" style="rounded=1;whiteSpace=wrap;html=1;absoluteArcSize=1;arcSize=14;strokeWidth=2;" parent="1" vertex="1">
          <mxGeometry x="327.5" y="80" width="215" height="30" as="geometry" />
        </mxCell>
        <mxCell id="E5Fl1huvzpqKiBBrvRUE-21" style="edgeStyle=orthogonalEdgeStyle;rounded=0;orthogonalLoop=1;jettySize=auto;html=1;exitX=0.5;exitY=1;exitDx=0;exitDy=0;entryX=0.5;entryY=0;entryDx=0;entryDy=0;" parent="1" source="E5Fl1huvzpqKiBBrvRUE-4" target="E5Fl1huvzpqKiBBrvRUE-18" edge="1">
          <mxGeometry relative="1" as="geometry" />
        </mxCell>
        <mxCell id="E5Fl1huvzpqKiBBrvRUE-4" value="Система перевіряє авторизацію (логін, пароль, email)" style="rounded=1;whiteSpace=wrap;html=1;absoluteArcSize=1;arcSize=14;strokeWidth=2;" parent="1" vertex="1">
          <mxGeometry x="330" y="140" width="212.5" height="40" as="geometry" />
        </mxCell>
        <mxCell id="E5Fl1huvzpqKiBBrvRUE-24" style="edgeStyle=orthogonalEdgeStyle;rounded=0;orthogonalLoop=1;jettySize=auto;html=1;exitX=1;exitY=0.5;exitDx=0;exitDy=0;entryX=0.5;entryY=0;entryDx=0;entryDy=0;" parent="1" source="E5Fl1huvzpqKiBBrvRUE-18" target="E5Fl1huvzpqKiBBrvRUE-22" edge="1">
          <mxGeometry relative="1" as="geometry" />
        </mxCell>
        <mxCell id="E5Fl1huvzpqKiBBrvRUE-30" style="edgeStyle=orthogonalEdgeStyle;rounded=0;orthogonalLoop=1;jettySize=auto;html=1;exitX=0;exitY=0.5;exitDx=0;exitDy=0;entryX=0.5;entryY=0;entryDx=0;entryDy=0;" parent="1" source="E5Fl1huvzpqKiBBrvRUE-18" target="E5Fl1huvzpqKiBBrvRUE-28" edge="1">
          <mxGeometry relative="1" as="geometry" />
        </mxCell>
        <mxCell id="E5Fl1huvzpqKiBBrvRUE-18" value="" style="verticalLabelPosition=bottom;verticalAlign=top;html=1;shape=hexagon;perimeter=hexagonPerimeter2;arcSize=6;size=0.27;" parent="1" vertex="1">
          <mxGeometry x="331.25" y="210" width="210" height="60" as="geometry" />
        </mxCell>
        <mxCell id="E5Fl1huvzpqKiBBrvRUE-19" value="Користувач зареєстрований?" style="text;html=1;align=center;verticalAlign=middle;resizable=0;points=[];autosize=1;strokeColor=none;fillColor=none;" parent="1" vertex="1">
          <mxGeometry x="341.25" y="225" width="190" height="30" as="geometry" />
        </mxCell>
        <mxCell id="zzarbhXnILVOH7ZGIwFk-3" style="edgeStyle=orthogonalEdgeStyle;rounded=0;orthogonalLoop=1;jettySize=auto;html=1;exitX=1;exitY=0.5;exitDx=0;exitDy=0;entryX=1;entryY=0.5;entryDx=0;entryDy=0;" edge="1" parent="1" source="E5Fl1huvzpqKiBBrvRUE-22" target="E5Fl1huvzpqKiBBrvRUE-3">
          <mxGeometry relative="1" as="geometry" />
        </mxCell>
        <mxCell id="E5Fl1huvzpqKiBBrvRUE-22" value="Вивести повідомлення &quot;Незареєстрований користувач&quot;" style="rounded=1;whiteSpace=wrap;html=1;absoluteArcSize=1;arcSize=14;strokeWidth=2;" parent="1" vertex="1">
          <mxGeometry x="640" y="310" width="360" height="40" as="geometry" />
        </mxCell>
        <mxCell id="E5Fl1huvzpqKiBBrvRUE-25" value="Ні" style="text;html=1;align=center;verticalAlign=middle;resizable=0;points=[];autosize=1;strokeColor=none;fillColor=none;" parent="1" vertex="1">
          <mxGeometry x="525" y="198" width="30" height="30" as="geometry" />
        </mxCell>
        <mxCell id="E5Fl1huvzpqKiBBrvRUE-33" style="edgeStyle=orthogonalEdgeStyle;rounded=0;orthogonalLoop=1;jettySize=auto;html=1;exitX=1;exitY=0.5;exitDx=0;exitDy=0;entryX=0.5;entryY=0;entryDx=0;entryDy=0;" parent="1" source="E5Fl1huvzpqKiBBrvRUE-28" target="E5Fl1huvzpqKiBBrvRUE-31" edge="1">
          <mxGeometry relative="1" as="geometry" />
        </mxCell>
        <mxCell id="E5Fl1huvzpqKiBBrvRUE-37" style="edgeStyle=orthogonalEdgeStyle;rounded=0;orthogonalLoop=1;jettySize=auto;html=1;exitX=0;exitY=0.5;exitDx=0;exitDy=0;entryX=0.5;entryY=0;entryDx=0;entryDy=0;" parent="1" source="E5Fl1huvzpqKiBBrvRUE-28" target="E5Fl1huvzpqKiBBrvRUE-32" edge="1">
          <mxGeometry relative="1" as="geometry" />
        </mxCell>
        <mxCell id="E5Fl1huvzpqKiBBrvRUE-28" value="" style="verticalLabelPosition=bottom;verticalAlign=top;html=1;shape=hexagon;perimeter=hexagonPerimeter2;arcSize=6;size=0.27;" parent="1" vertex="1">
          <mxGeometry x="169.25" y="310" width="140" height="60" as="geometry" />
        </mxCell>
        <mxCell id="E5Fl1huvzpqKiBBrvRUE-29" value="Дані введено вірно?" style="text;whiteSpace=wrap;" parent="1" vertex="1">
          <mxGeometry x="181.25" y="325" width="118.75" height="40" as="geometry" />
        </mxCell>
        <mxCell id="zzarbhXnILVOH7ZGIwFk-4" style="edgeStyle=orthogonalEdgeStyle;rounded=0;orthogonalLoop=1;jettySize=auto;html=1;exitX=1;exitY=0.5;exitDx=0;exitDy=0;entryX=1;entryY=0.5;entryDx=0;entryDy=0;" edge="1" parent="1" source="E5Fl1huvzpqKiBBrvRUE-31" target="E5Fl1huvzpqKiBBrvRUE-3">
          <mxGeometry relative="1" as="geometry">
            <Array as="points">
              <mxPoint x="1060" y="417" />
              <mxPoint x="1060" y="95" />
            </Array>
          </mxGeometry>
        </mxCell>
        <mxCell id="E5Fl1huvzpqKiBBrvRUE-31" value="Вивести повідомлення &quot;Невірно введені дані&quot;" style="rounded=1;whiteSpace=wrap;html=1;absoluteArcSize=1;arcSize=14;strokeWidth=2;" parent="1" vertex="1">
          <mxGeometry x="309.25" y="400" width="258.75" height="34" as="geometry" />
        </mxCell>
        <mxCell id="E5Fl1huvzpqKiBBrvRUE-41" style="edgeStyle=orthogonalEdgeStyle;rounded=0;orthogonalLoop=1;jettySize=auto;html=1;exitX=0.5;exitY=1;exitDx=0;exitDy=0;entryX=0.5;entryY=0;entryDx=0;entryDy=0;" parent="1" source="E5Fl1huvzpqKiBBrvRUE-32" target="E5Fl1huvzpqKiBBrvRUE-40" edge="1">
          <mxGeometry relative="1" as="geometry" />
        </mxCell>
        <mxCell id="E5Fl1huvzpqKiBBrvRUE-32" value="Перекидання користувача на головне меню" style="rounded=1;whiteSpace=wrap;html=1;absoluteArcSize=1;arcSize=14;strokeWidth=2;" parent="1" vertex="1">
          <mxGeometry x="-110" y="400" width="260" height="40" as="geometry" />
        </mxCell>
        <mxCell id="E5Fl1huvzpqKiBBrvRUE-34" value="Ні" style="text;html=1;align=center;verticalAlign=middle;resizable=0;points=[];autosize=1;strokeColor=none;fillColor=none;" parent="1" vertex="1">
          <mxGeometry x="309.25" y="300" width="30" height="30" as="geometry" />
        </mxCell>
        <mxCell id="E5Fl1huvzpqKiBBrvRUE-38" value="Так" style="text;html=1;align=center;verticalAlign=middle;resizable=0;points=[];autosize=1;strokeColor=none;fillColor=none;" parent="1" vertex="1">
          <mxGeometry x="299.25" y="198" width="40" height="30" as="geometry" />
        </mxCell>
        <mxCell id="E5Fl1huvzpqKiBBrvRUE-39" value="Так" style="text;html=1;align=center;verticalAlign=middle;resizable=0;points=[];autosize=1;strokeColor=none;fillColor=none;" parent="1" vertex="1">
          <mxGeometry x="129.25" y="300" width="40" height="30" as="geometry" />
        </mxCell>
        <mxCell id="E5Fl1huvzpqKiBBrvRUE-43" style="edgeStyle=orthogonalEdgeStyle;rounded=0;orthogonalLoop=1;jettySize=auto;html=1;exitX=0.5;exitY=1;exitDx=0;exitDy=0;entryX=0.5;entryY=0;entryDx=0;entryDy=0;" parent="1" source="E5Fl1huvzpqKiBBrvRUE-40" target="E5Fl1huvzpqKiBBrvRUE-42" edge="1">
          <mxGeometry relative="1" as="geometry" />
        </mxCell>
        <mxCell id="E5Fl1huvzpqKiBBrvRUE-40" value="Користувач вводить своє поточне місцезнаходження та пункт призначення" style="rounded=1;whiteSpace=wrap;html=1;absoluteArcSize=1;arcSize=14;strokeWidth=2;" parent="1" vertex="1">
          <mxGeometry x="20.629999999999995" y="590" width="440" height="40" as="geometry" />
        </mxCell>
        <mxCell id="E5Fl1huvzpqKiBBrvRUE-46" style="edgeStyle=orthogonalEdgeStyle;rounded=0;orthogonalLoop=1;jettySize=auto;html=1;exitX=0.5;exitY=1;exitDx=0;exitDy=0;entryX=0.5;entryY=0;entryDx=0;entryDy=0;" parent="1" source="E5Fl1huvzpqKiBBrvRUE-42" target="E5Fl1huvzpqKiBBrvRUE-44" edge="1">
          <mxGeometry relative="1" as="geometry" />
        </mxCell>
        <mxCell id="E5Fl1huvzpqKiBBrvRUE-42" value="Користувач обирає тип транспорту та натискає &quot;Пошук оптимального маршруту&quot;" style="rounded=1;whiteSpace=wrap;html=1;absoluteArcSize=1;arcSize=14;strokeWidth=2;" parent="1" vertex="1">
          <mxGeometry x="20.63" y="660" width="439.37" height="50" as="geometry" />
        </mxCell>
        <mxCell id="E5Fl1huvzpqKiBBrvRUE-51" style="edgeStyle=orthogonalEdgeStyle;rounded=0;orthogonalLoop=1;jettySize=auto;html=1;exitX=0;exitY=0.5;exitDx=0;exitDy=0;entryX=0.5;entryY=0;entryDx=0;entryDy=0;" parent="1" source="E5Fl1huvzpqKiBBrvRUE-44" target="E5Fl1huvzpqKiBBrvRUE-48" edge="1">
          <mxGeometry relative="1" as="geometry" />
        </mxCell>
        <mxCell id="E5Fl1huvzpqKiBBrvRUE-54" style="edgeStyle=orthogonalEdgeStyle;rounded=0;orthogonalLoop=1;jettySize=auto;html=1;exitX=1;exitY=0.5;exitDx=0;exitDy=0;entryX=0.5;entryY=0;entryDx=0;entryDy=0;" parent="1" source="E5Fl1huvzpqKiBBrvRUE-44" target="E5Fl1huvzpqKiBBrvRUE-47" edge="1">
          <mxGeometry relative="1" as="geometry" />
        </mxCell>
        <mxCell id="E5Fl1huvzpqKiBBrvRUE-44" value="" style="verticalLabelPosition=bottom;verticalAlign=top;html=1;shape=hexagon;perimeter=hexagonPerimeter2;arcSize=6;size=0.27;" parent="1" vertex="1">
          <mxGeometry x="120" y="740" width="220" height="50" as="geometry" />
        </mxCell>
        <mxCell id="E5Fl1huvzpqKiBBrvRUE-45" value="Маршрути знайдено?" style="text;whiteSpace=wrap;" parent="1" vertex="1">
          <mxGeometry x="160" y="750" width="130.75" height="40" as="geometry" />
        </mxCell>
        <mxCell id="E5Fl1huvzpqKiBBrvRUE-47" value="Вивести повідомлення &quot;Маршрути відсутні&quot;" style="rounded=1;whiteSpace=wrap;html=1;absoluteArcSize=1;arcSize=14;strokeWidth=2;" parent="1" vertex="1">
          <mxGeometry x="360" y="840" width="260" height="40" as="geometry" />
        </mxCell>
        <mxCell id="E5Fl1huvzpqKiBBrvRUE-52" style="edgeStyle=orthogonalEdgeStyle;rounded=0;orthogonalLoop=1;jettySize=auto;html=1;exitX=0.5;exitY=1;exitDx=0;exitDy=0;entryX=0.5;entryY=0;entryDx=0;entryDy=0;" parent="1" source="E5Fl1huvzpqKiBBrvRUE-48" target="E5Fl1huvzpqKiBBrvRUE-49" edge="1">
          <mxGeometry relative="1" as="geometry" />
        </mxCell>
        <mxCell id="E5Fl1huvzpqKiBBrvRUE-48" value="Система відображає усі можливі маршрути" style="rounded=1;whiteSpace=wrap;html=1;absoluteArcSize=1;arcSize=14;strokeWidth=2;" parent="1" vertex="1">
          <mxGeometry x="-150" y="840" width="250" height="40" as="geometry" />
        </mxCell>
        <mxCell id="E5Fl1huvzpqKiBBrvRUE-53" style="edgeStyle=orthogonalEdgeStyle;rounded=0;orthogonalLoop=1;jettySize=auto;html=1;exitX=0.5;exitY=1;exitDx=0;exitDy=0;entryX=0.5;entryY=0;entryDx=0;entryDy=0;" parent="1" source="E5Fl1huvzpqKiBBrvRUE-49" target="E5Fl1huvzpqKiBBrvRUE-50" edge="1">
          <mxGeometry relative="1" as="geometry" />
        </mxCell>
        <mxCell id="E5Fl1huvzpqKiBBrvRUE-49" value="Користувач обирає потрібний маршрут" style="rounded=1;whiteSpace=wrap;html=1;absoluteArcSize=1;arcSize=14;strokeWidth=2;" parent="1" vertex="1">
          <mxGeometry x="-140" y="920" width="230" height="40" as="geometry" />
        </mxCell>
        <mxCell id="E5Fl1huvzpqKiBBrvRUE-50" value="Система видає опис вибраного маршруту з інформацією про можливі ризики та/або затори" style="rounded=1;whiteSpace=wrap;html=1;absoluteArcSize=1;arcSize=14;strokeWidth=2;" parent="1" vertex="1">
          <mxGeometry x="-180.75" y="990" width="310" height="50" as="geometry" />
        </mxCell>
        <mxCell id="E5Fl1huvzpqKiBBrvRUE-59" style="edgeStyle=orthogonalEdgeStyle;rounded=0;orthogonalLoop=1;jettySize=auto;html=1;exitX=0.5;exitY=1;exitDx=0;exitDy=0;exitPerimeter=0;entryX=0.5;entryY=0;entryDx=0;entryDy=0;" parent="1" source="E5Fl1huvzpqKiBBrvRUE-55" target="E5Fl1huvzpqKiBBrvRUE-58" edge="1">
          <mxGeometry relative="1" as="geometry" />
        </mxCell>
        <mxCell id="E5Fl1huvzpqKiBBrvRUE-55" value="" style="strokeWidth=2;html=1;shape=mxgraph.flowchart.decision;whiteSpace=wrap;" parent="1" vertex="1">
          <mxGeometry x="169.25" y="1100" width="80" height="70" as="geometry" />
        </mxCell>
        <mxCell id="E5Fl1huvzpqKiBBrvRUE-56" style="edgeStyle=orthogonalEdgeStyle;rounded=0;orthogonalLoop=1;jettySize=auto;html=1;exitX=0.5;exitY=1;exitDx=0;exitDy=0;entryX=1;entryY=0.5;entryDx=0;entryDy=0;entryPerimeter=0;" parent="1" source="E5Fl1huvzpqKiBBrvRUE-47" target="E5Fl1huvzpqKiBBrvRUE-55" edge="1">
          <mxGeometry relative="1" as="geometry" />
        </mxCell>
        <mxCell id="E5Fl1huvzpqKiBBrvRUE-57" style="edgeStyle=orthogonalEdgeStyle;rounded=0;orthogonalLoop=1;jettySize=auto;html=1;exitX=0.5;exitY=1;exitDx=0;exitDy=0;entryX=0;entryY=0.5;entryDx=0;entryDy=0;entryPerimeter=0;" parent="1" source="E5Fl1huvzpqKiBBrvRUE-50" target="E5Fl1huvzpqKiBBrvRUE-55" edge="1">
          <mxGeometry relative="1" as="geometry" />
        </mxCell>
        <mxCell id="E5Fl1huvzpqKiBBrvRUE-58" value="" style="ellipse;html=1;shape=endState;fillColor=#000000;strokeColor=#ff0000;" parent="1" vertex="1">
          <mxGeometry x="194" y="1230" width="30" height="30" as="geometry" />
        </mxCell>
        <mxCell id="zzarbhXnILVOH7ZGIwFk-1" value="Ні" style="text;html=1;align=center;verticalAlign=middle;resizable=0;points=[];autosize=1;strokeColor=none;fillColor=none;" vertex="1" parent="1">
          <mxGeometry x="320" y="728" width="30" height="30" as="geometry" />
        </mxCell>
        <mxCell id="zzarbhXnILVOH7ZGIwFk-2" value="Так" style="text;html=1;align=center;verticalAlign=middle;resizable=0;points=[];autosize=1;strokeColor=none;fillColor=none;" vertex="1" parent="1">
          <mxGeometry x="90" y="728" width="40" height="30" as="geometry" />
        </mxCell>
      </root>
    </mxGraphModel>
  </diagram>
  <diagram id="JtEaS6-73SZX4MA4WX-C" name="Діаграма діяльності (2)">
    <mxGraphModel dx="1392" dy="713" grid="1" gridSize="10" guides="1" tooltips="1" connect="1" arrows="1" fold="1" page="1" pageScale="1" pageWidth="1169" pageHeight="827" math="0" shadow="0">
      <root>
        <mxCell id="0" />
        <mxCell id="1" parent="0" />
        <mxCell id="n8gk8YFJGg0jzJ4ufxRq-1" value="" style="ellipse;html=1;shape=startState;fillColor=#000000;strokeColor=#ff0000;" parent="1" vertex="1">
          <mxGeometry x="510" y="20" width="30" height="30" as="geometry" />
        </mxCell>
        <mxCell id="n8gk8YFJGg0jzJ4ufxRq-2" value="" style="edgeStyle=orthogonalEdgeStyle;html=1;verticalAlign=bottom;endArrow=open;endSize=8;strokeColor=#ff0000;rounded=0;entryX=0.5;entryY=0;entryDx=0;entryDy=0;" parent="1" source="n8gk8YFJGg0jzJ4ufxRq-1" target="n8gk8YFJGg0jzJ4ufxRq-3" edge="1">
          <mxGeometry relative="1" as="geometry">
            <mxPoint x="525" y="110" as="targetPoint" />
          </mxGeometry>
        </mxCell>
        <mxCell id="NhBCzzgwW84HAcOU5Gdg-16" style="edgeStyle=orthogonalEdgeStyle;rounded=0;orthogonalLoop=1;jettySize=auto;html=1;exitX=0.5;exitY=1;exitDx=0;exitDy=0;entryX=0.5;entryY=0;entryDx=0;entryDy=0;" parent="1" source="n8gk8YFJGg0jzJ4ufxRq-3" target="n8gk8YFJGg0jzJ4ufxRq-4" edge="1">
          <mxGeometry relative="1" as="geometry" />
        </mxCell>
        <mxCell id="n8gk8YFJGg0jzJ4ufxRq-3" value="Диспетчер запускає систему на комп’ютері або мобільному пристрої" style="rounded=1;whiteSpace=wrap;html=1;absoluteArcSize=1;arcSize=14;strokeWidth=2;" parent="1" vertex="1">
          <mxGeometry x="295" y="90" width="460" height="40" as="geometry" />
        </mxCell>
        <mxCell id="NhBCzzgwW84HAcOU5Gdg-17" style="edgeStyle=orthogonalEdgeStyle;rounded=0;orthogonalLoop=1;jettySize=auto;html=1;exitX=0.5;exitY=1;exitDx=0;exitDy=0;entryX=0.5;entryY=0;entryDx=0;entryDy=0;" parent="1" source="n8gk8YFJGg0jzJ4ufxRq-4" target="NhBCzzgwW84HAcOU5Gdg-1" edge="1">
          <mxGeometry relative="1" as="geometry" />
        </mxCell>
        <mxCell id="n8gk8YFJGg0jzJ4ufxRq-4" value="Диспетчер вводить логін та пароль" style="rounded=1;whiteSpace=wrap;html=1;absoluteArcSize=1;arcSize=14;strokeWidth=2;" parent="1" vertex="1">
          <mxGeometry x="415" y="170" width="220" height="40" as="geometry" />
        </mxCell>
        <mxCell id="NhBCzzgwW84HAcOU5Gdg-18" style="edgeStyle=orthogonalEdgeStyle;rounded=0;orthogonalLoop=1;jettySize=auto;html=1;exitX=0.5;exitY=1;exitDx=0;exitDy=0;entryX=0.5;entryY=0;entryDx=0;entryDy=0;" parent="1" source="NhBCzzgwW84HAcOU5Gdg-1" target="NhBCzzgwW84HAcOU5Gdg-2" edge="1">
          <mxGeometry relative="1" as="geometry" />
        </mxCell>
        <mxCell id="NhBCzzgwW84HAcOU5Gdg-1" value="Система перевіряє облікові дані" style="rounded=1;whiteSpace=wrap;html=1;absoluteArcSize=1;arcSize=14;strokeWidth=2;" parent="1" vertex="1">
          <mxGeometry x="425" y="250" width="200" height="40" as="geometry" />
        </mxCell>
        <mxCell id="NhBCzzgwW84HAcOU5Gdg-19" style="edgeStyle=orthogonalEdgeStyle;rounded=0;orthogonalLoop=1;jettySize=auto;html=1;exitX=1;exitY=0.5;exitDx=0;exitDy=0;entryX=0.5;entryY=0;entryDx=0;entryDy=0;" parent="1" source="NhBCzzgwW84HAcOU5Gdg-2" target="NhBCzzgwW84HAcOU5Gdg-4" edge="1">
          <mxGeometry relative="1" as="geometry" />
        </mxCell>
        <mxCell id="NhBCzzgwW84HAcOU5Gdg-21" style="edgeStyle=orthogonalEdgeStyle;rounded=0;orthogonalLoop=1;jettySize=auto;html=1;exitX=0;exitY=0.5;exitDx=0;exitDy=0;" parent="1" source="NhBCzzgwW84HAcOU5Gdg-2" target="NhBCzzgwW84HAcOU5Gdg-5" edge="1">
          <mxGeometry relative="1" as="geometry" />
        </mxCell>
        <mxCell id="NhBCzzgwW84HAcOU5Gdg-2" value="" style="verticalLabelPosition=bottom;verticalAlign=top;html=1;shape=hexagon;perimeter=hexagonPerimeter2;arcSize=6;size=0.27;" parent="1" vertex="1">
          <mxGeometry x="442.5" y="320" width="165" height="60" as="geometry" />
        </mxCell>
        <mxCell id="NhBCzzgwW84HAcOU5Gdg-3" value="Облікові дані коректні" style="text;html=1;align=center;verticalAlign=middle;resizable=0;points=[];autosize=1;strokeColor=none;fillColor=none;" parent="1" vertex="1">
          <mxGeometry x="450" y="335" width="150" height="30" as="geometry" />
        </mxCell>
        <mxCell id="NhBCzzgwW84HAcOU5Gdg-26" style="edgeStyle=orthogonalEdgeStyle;rounded=0;orthogonalLoop=1;jettySize=auto;html=1;exitX=0.5;exitY=1;exitDx=0;exitDy=0;entryX=0.5;entryY=0;entryDx=0;entryDy=0;" parent="1" source="NhBCzzgwW84HAcOU5Gdg-4" target="NhBCzzgwW84HAcOU5Gdg-25" edge="1">
          <mxGeometry relative="1" as="geometry" />
        </mxCell>
        <mxCell id="NhBCzzgwW84HAcOU5Gdg-4" value="Вивести повідомлення &quot;Доступ відхилено&quot;" style="rounded=1;whiteSpace=wrap;html=1;absoluteArcSize=1;arcSize=14;strokeWidth=2;" parent="1" vertex="1">
          <mxGeometry x="660" y="420" width="260" height="40" as="geometry" />
        </mxCell>
        <mxCell id="NhBCzzgwW84HAcOU5Gdg-24" style="edgeStyle=orthogonalEdgeStyle;rounded=0;orthogonalLoop=1;jettySize=auto;html=1;exitX=0.5;exitY=1;exitDx=0;exitDy=0;entryX=0.5;entryY=0;entryDx=0;entryDy=0;" parent="1" source="NhBCzzgwW84HAcOU5Gdg-5" target="NhBCzzgwW84HAcOU5Gdg-6" edge="1">
          <mxGeometry relative="1" as="geometry" />
        </mxCell>
        <mxCell id="NhBCzzgwW84HAcOU5Gdg-5" value="Надати доступ до функціоналу моніторингу" style="rounded=1;whiteSpace=wrap;html=1;absoluteArcSize=1;arcSize=14;strokeWidth=2;" parent="1" vertex="1">
          <mxGeometry x="150" y="420" width="260" height="40" as="geometry" />
        </mxCell>
        <mxCell id="NhBCzzgwW84HAcOU5Gdg-27" style="edgeStyle=orthogonalEdgeStyle;rounded=0;orthogonalLoop=1;jettySize=auto;html=1;exitX=0.5;exitY=1;exitDx=0;exitDy=0;entryX=0.5;entryY=0;entryDx=0;entryDy=0;" parent="1" source="NhBCzzgwW84HAcOU5Gdg-6" target="NhBCzzgwW84HAcOU5Gdg-7" edge="1">
          <mxGeometry relative="1" as="geometry" />
        </mxCell>
        <mxCell id="NhBCzzgwW84HAcOU5Gdg-6" value="Диспетчер відкриває інтерфейс моніторингу" style="rounded=1;whiteSpace=wrap;html=1;absoluteArcSize=1;arcSize=14;strokeWidth=2;" parent="1" vertex="1">
          <mxGeometry x="400" y="550" width="250" height="40" as="geometry" />
        </mxCell>
        <mxCell id="NhBCzzgwW84HAcOU5Gdg-28" style="edgeStyle=orthogonalEdgeStyle;rounded=0;orthogonalLoop=1;jettySize=auto;html=1;exitX=0.5;exitY=1;exitDx=0;exitDy=0;entryX=0.5;entryY=0;entryDx=0;entryDy=0;" parent="1" source="NhBCzzgwW84HAcOU5Gdg-7" target="NhBCzzgwW84HAcOU5Gdg-8" edge="1">
          <mxGeometry relative="1" as="geometry" />
        </mxCell>
        <mxCell id="NhBCzzgwW84HAcOU5Gdg-7" value="Система відображає поточне місцезнаходження транспортних засобів на карті" style="rounded=1;whiteSpace=wrap;html=1;absoluteArcSize=1;arcSize=14;strokeWidth=2;" parent="1" vertex="1">
          <mxGeometry x="330" y="640" width="390" height="50" as="geometry" />
        </mxCell>
        <mxCell id="NhBCzzgwW84HAcOU5Gdg-29" style="edgeStyle=orthogonalEdgeStyle;rounded=0;orthogonalLoop=1;jettySize=auto;html=1;exitX=0.5;exitY=1;exitDx=0;exitDy=0;entryX=0.5;entryY=0;entryDx=0;entryDy=0;" parent="1" source="NhBCzzgwW84HAcOU5Gdg-8" target="NhBCzzgwW84HAcOU5Gdg-9" edge="1">
          <mxGeometry relative="1" as="geometry" />
        </mxCell>
        <mxCell id="NhBCzzgwW84HAcOU5Gdg-8" value="Моніторинг виконується" style="rounded=1;whiteSpace=wrap;html=1;absoluteArcSize=1;arcSize=14;strokeWidth=2;" parent="1" vertex="1">
          <mxGeometry x="455" y="740" width="140" height="40" as="geometry" />
        </mxCell>
        <mxCell id="NhBCzzgwW84HAcOU5Gdg-30" style="edgeStyle=orthogonalEdgeStyle;rounded=0;orthogonalLoop=1;jettySize=auto;html=1;exitX=0;exitY=0.5;exitDx=0;exitDy=0;entryX=0.5;entryY=0;entryDx=0;entryDy=0;" parent="1" source="NhBCzzgwW84HAcOU5Gdg-9" target="NhBCzzgwW84HAcOU5Gdg-11" edge="1">
          <mxGeometry relative="1" as="geometry" />
        </mxCell>
        <mxCell id="NhBCzzgwW84HAcOU5Gdg-9" value="" style="verticalLabelPosition=bottom;verticalAlign=top;html=1;shape=hexagon;perimeter=hexagonPerimeter2;arcSize=6;size=0.27;" parent="1" vertex="1">
          <mxGeometry x="418.75" y="827" width="212.5" height="60" as="geometry" />
        </mxCell>
        <mxCell id="NhBCzzgwW84HAcOU5Gdg-10" value="Диспетчер вирішує вийти до завершення моніторингу?" style="text;whiteSpace=wrap;" parent="1" vertex="1">
          <mxGeometry x="446.25" y="837" width="170" height="40" as="geometry" />
        </mxCell>
        <mxCell id="NhBCzzgwW84HAcOU5Gdg-33" style="edgeStyle=orthogonalEdgeStyle;rounded=0;orthogonalLoop=1;jettySize=auto;html=1;exitX=0.5;exitY=1;exitDx=0;exitDy=0;entryX=0;entryY=0.5;entryDx=0;entryDy=0;" parent="1" source="NhBCzzgwW84HAcOU5Gdg-11" target="NhBCzzgwW84HAcOU5Gdg-15" edge="1">
          <mxGeometry relative="1" as="geometry" />
        </mxCell>
        <mxCell id="NhBCzzgwW84HAcOU5Gdg-34" style="edgeStyle=orthogonalEdgeStyle;rounded=0;orthogonalLoop=1;jettySize=auto;html=1;exitX=1;exitY=0.5;exitDx=0;exitDy=0;entryX=1;entryY=0.5;entryDx=0;entryDy=0;" parent="1" source="NhBCzzgwW84HAcOU5Gdg-9" target="NhBCzzgwW84HAcOU5Gdg-13" edge="1">
          <mxGeometry relative="1" as="geometry" />
        </mxCell>
        <mxCell id="NhBCzzgwW84HAcOU5Gdg-11" value="Скидання налаштувань сесії" style="rounded=1;whiteSpace=wrap;html=1;absoluteArcSize=1;arcSize=14;strokeWidth=2;" parent="1" vertex="1">
          <mxGeometry x="264.25" y="930" width="163.75" height="40" as="geometry" />
        </mxCell>
        <mxCell id="NhBCzzgwW84HAcOU5Gdg-35" style="edgeStyle=orthogonalEdgeStyle;rounded=0;orthogonalLoop=1;jettySize=auto;html=1;exitX=0.5;exitY=1;exitDx=0;exitDy=0;entryX=0.5;entryY=0;entryDx=0;entryDy=0;" parent="1" source="NhBCzzgwW84HAcOU5Gdg-13" target="NhBCzzgwW84HAcOU5Gdg-14" edge="1">
          <mxGeometry relative="1" as="geometry" />
        </mxCell>
        <mxCell id="NhBCzzgwW84HAcOU5Gdg-13" value="Диспетчер завершує моніторинг" style="rounded=1;whiteSpace=wrap;html=1;absoluteArcSize=1;arcSize=14;strokeWidth=2;" parent="1" vertex="1">
          <mxGeometry x="428" y="1090" width="200" height="40" as="geometry" />
        </mxCell>
        <mxCell id="NhBCzzgwW84HAcOU5Gdg-36" style="edgeStyle=orthogonalEdgeStyle;rounded=0;orthogonalLoop=1;jettySize=auto;html=1;exitX=0.5;exitY=1;exitDx=0;exitDy=0;entryX=0.5;entryY=0;entryDx=0;entryDy=0;" parent="1" source="NhBCzzgwW84HAcOU5Gdg-14" target="NhBCzzgwW84HAcOU5Gdg-15" edge="1">
          <mxGeometry relative="1" as="geometry" />
        </mxCell>
        <mxCell id="NhBCzzgwW84HAcOU5Gdg-14" value="Диспетчер виходить із системи" style="rounded=1;whiteSpace=wrap;html=1;absoluteArcSize=1;arcSize=14;strokeWidth=2;" parent="1" vertex="1">
          <mxGeometry x="422.38" y="1160" width="211.25" height="40" as="geometry" />
        </mxCell>
        <mxCell id="NhBCzzgwW84HAcOU5Gdg-15" value="" style="ellipse;html=1;shape=endState;fillColor=#000000;strokeColor=#ff0000;" parent="1" vertex="1">
          <mxGeometry x="513" y="1241" width="30" height="30" as="geometry" />
        </mxCell>
        <mxCell id="NhBCzzgwW84HAcOU5Gdg-22" value="Ні" style="text;html=1;align=center;verticalAlign=middle;resizable=0;points=[];autosize=1;strokeColor=none;fillColor=none;" parent="1" vertex="1">
          <mxGeometry x="615" y="318" width="30" height="30" as="geometry" />
        </mxCell>
        <mxCell id="NhBCzzgwW84HAcOU5Gdg-23" value="Так" style="text;html=1;align=center;verticalAlign=middle;resizable=0;points=[];autosize=1;strokeColor=none;fillColor=none;" parent="1" vertex="1">
          <mxGeometry x="406.25" y="318" width="40" height="30" as="geometry" />
        </mxCell>
        <mxCell id="NhBCzzgwW84HAcOU5Gdg-25" value="" style="ellipse;html=1;shape=endState;fillColor=#000000;strokeColor=#ff0000;" parent="1" vertex="1">
          <mxGeometry x="775" y="500" width="30" height="30" as="geometry" />
        </mxCell>
        <mxCell id="NhBCzzgwW84HAcOU5Gdg-31" value="Так" style="text;html=1;align=center;verticalAlign=middle;resizable=0;points=[];autosize=1;strokeColor=none;fillColor=none;" parent="1" vertex="1">
          <mxGeometry x="388" y="820" width="40" height="30" as="geometry" />
        </mxCell>
        <mxCell id="1q58FyIB0hVRszLQ5UiE-2" value="Ні" style="text;html=1;align=center;verticalAlign=middle;resizable=0;points=[];autosize=1;strokeColor=none;fillColor=none;" vertex="1" parent="1">
          <mxGeometry x="625" y="820" width="30" height="30" as="geometry" />
        </mxCell>
      </root>
    </mxGraphModel>
  </diagram>
  <diagram id="dSkc5hqzTmDM7pgZSyBb" name="Діаграма діяльності (3)">
    <mxGraphModel dx="2983" dy="1529" grid="1" gridSize="10" guides="1" tooltips="1" connect="1" arrows="1" fold="1" page="1" pageScale="1" pageWidth="1169" pageHeight="827" math="0" shadow="0">
      <root>
        <mxCell id="0" />
        <mxCell id="1" parent="0" />
        <mxCell id="x2GLpRJdT-Dp4-05BTg7-1" value="" style="ellipse;html=1;shape=startState;fillColor=#000000;strokeColor=#ff0000;" vertex="1" parent="1">
          <mxGeometry x="646" y="20" width="30" height="30" as="geometry" />
        </mxCell>
        <mxCell id="x2GLpRJdT-Dp4-05BTg7-2" value="" style="edgeStyle=orthogonalEdgeStyle;html=1;verticalAlign=bottom;endArrow=open;endSize=8;strokeColor=#ff0000;rounded=0;entryX=0.5;entryY=0;entryDx=0;entryDy=0;" edge="1" source="x2GLpRJdT-Dp4-05BTg7-1" parent="1" target="x2GLpRJdT-Dp4-05BTg7-3">
          <mxGeometry relative="1" as="geometry">
            <mxPoint x="661" y="110" as="targetPoint" />
          </mxGeometry>
        </mxCell>
        <mxCell id="x2GLpRJdT-Dp4-05BTg7-6" style="edgeStyle=orthogonalEdgeStyle;rounded=0;orthogonalLoop=1;jettySize=auto;html=1;exitX=0.5;exitY=1;exitDx=0;exitDy=0;entryX=0.5;entryY=0;entryDx=0;entryDy=0;" edge="1" parent="1" source="x2GLpRJdT-Dp4-05BTg7-3" target="x2GLpRJdT-Dp4-05BTg7-4">
          <mxGeometry relative="1" as="geometry" />
        </mxCell>
        <mxCell id="x2GLpRJdT-Dp4-05BTg7-3" value="Диспетчер відкриває систему моніторингу" style="rounded=1;whiteSpace=wrap;html=1;absoluteArcSize=1;arcSize=14;strokeWidth=2;" vertex="1" parent="1">
          <mxGeometry x="538.5" y="120" width="245" height="40" as="geometry" />
        </mxCell>
        <mxCell id="x2GLpRJdT-Dp4-05BTg7-7" style="edgeStyle=orthogonalEdgeStyle;rounded=0;orthogonalLoop=1;jettySize=auto;html=1;exitX=0.5;exitY=1;exitDx=0;exitDy=0;" edge="1" parent="1" source="x2GLpRJdT-Dp4-05BTg7-4" target="x2GLpRJdT-Dp4-05BTg7-5">
          <mxGeometry relative="1" as="geometry" />
        </mxCell>
        <mxCell id="x2GLpRJdT-Dp4-05BTg7-4" value="Активує модуль прогнозу погоди" style="rounded=1;whiteSpace=wrap;html=1;absoluteArcSize=1;arcSize=14;strokeWidth=2;" vertex="1" parent="1">
          <mxGeometry x="558.5" y="200" width="205" height="40" as="geometry" />
        </mxCell>
        <mxCell id="x2GLpRJdT-Dp4-05BTg7-15" style="edgeStyle=orthogonalEdgeStyle;rounded=0;orthogonalLoop=1;jettySize=auto;html=1;exitX=0.5;exitY=1;exitDx=0;exitDy=0;entryX=0.5;entryY=0;entryDx=0;entryDy=0;" edge="1" parent="1" source="x2GLpRJdT-Dp4-05BTg7-5" target="x2GLpRJdT-Dp4-05BTg7-8">
          <mxGeometry relative="1" as="geometry" />
        </mxCell>
        <mxCell id="x2GLpRJdT-Dp4-05BTg7-5" value="Система отримує метеодані" style="rounded=1;whiteSpace=wrap;html=1;absoluteArcSize=1;arcSize=14;strokeWidth=2;" vertex="1" parent="1">
          <mxGeometry x="581" y="280" width="160" height="40" as="geometry" />
        </mxCell>
        <mxCell id="x2GLpRJdT-Dp4-05BTg7-16" style="edgeStyle=orthogonalEdgeStyle;rounded=0;orthogonalLoop=1;jettySize=auto;html=1;exitX=1;exitY=0.5;exitDx=0;exitDy=0;entryX=0.5;entryY=0;entryDx=0;entryDy=0;" edge="1" parent="1" source="x2GLpRJdT-Dp4-05BTg7-8" target="x2GLpRJdT-Dp4-05BTg7-10">
          <mxGeometry relative="1" as="geometry" />
        </mxCell>
        <mxCell id="x2GLpRJdT-Dp4-05BTg7-17" style="edgeStyle=orthogonalEdgeStyle;rounded=0;orthogonalLoop=1;jettySize=auto;html=1;exitX=0;exitY=0.5;exitDx=0;exitDy=0;entryX=0.5;entryY=0;entryDx=0;entryDy=0;" edge="1" parent="1" source="x2GLpRJdT-Dp4-05BTg7-8" target="x2GLpRJdT-Dp4-05BTg7-11">
          <mxGeometry relative="1" as="geometry" />
        </mxCell>
        <mxCell id="x2GLpRJdT-Dp4-05BTg7-8" value="" style="verticalLabelPosition=bottom;verticalAlign=top;html=1;shape=hexagon;perimeter=hexagonPerimeter2;arcSize=6;size=0.27;" vertex="1" parent="1">
          <mxGeometry x="571" y="350" width="180" height="60" as="geometry" />
        </mxCell>
        <mxCell id="x2GLpRJdT-Dp4-05BTg7-9" value="Метеодані отримано?" style="text;html=1;align=center;verticalAlign=middle;resizable=0;points=[];autosize=1;strokeColor=none;fillColor=none;" vertex="1" parent="1">
          <mxGeometry x="591" y="365" width="140" height="30" as="geometry" />
        </mxCell>
        <mxCell id="x2GLpRJdT-Dp4-05BTg7-10" value="Вивести повідомлення &quot;Помилка отримання метеоданих&quot;" style="rounded=1;whiteSpace=wrap;html=1;absoluteArcSize=1;arcSize=14;strokeWidth=2;" vertex="1" parent="1">
          <mxGeometry x="783.5" y="450" width="340" height="40" as="geometry" />
        </mxCell>
        <mxCell id="x2GLpRJdT-Dp4-05BTg7-18" style="edgeStyle=orthogonalEdgeStyle;rounded=0;orthogonalLoop=1;jettySize=auto;html=1;exitX=0.5;exitY=1;exitDx=0;exitDy=0;entryX=0.5;entryY=0;entryDx=0;entryDy=0;" edge="1" parent="1" source="x2GLpRJdT-Dp4-05BTg7-11" target="x2GLpRJdT-Dp4-05BTg7-12">
          <mxGeometry relative="1" as="geometry" />
        </mxCell>
        <mxCell id="x2GLpRJdT-Dp4-05BTg7-11" value="Аналіз погодних умов" style="rounded=1;whiteSpace=wrap;html=1;absoluteArcSize=1;arcSize=14;strokeWidth=2;" vertex="1" parent="1">
          <mxGeometry x="356" y="450" width="170" height="40" as="geometry" />
        </mxCell>
        <mxCell id="x2GLpRJdT-Dp4-05BTg7-19" style="edgeStyle=orthogonalEdgeStyle;rounded=0;orthogonalLoop=1;jettySize=auto;html=1;exitX=1;exitY=0.5;exitDx=0;exitDy=0;entryX=0.5;entryY=0;entryDx=0;entryDy=0;" edge="1" parent="1" source="x2GLpRJdT-Dp4-05BTg7-12" target="x2GLpRJdT-Dp4-05BTg7-14">
          <mxGeometry relative="1" as="geometry" />
        </mxCell>
        <mxCell id="x2GLpRJdT-Dp4-05BTg7-23" style="edgeStyle=orthogonalEdgeStyle;rounded=0;orthogonalLoop=1;jettySize=auto;html=1;exitX=0;exitY=0.5;exitDx=0;exitDy=0;entryX=0.5;entryY=0;entryDx=0;entryDy=0;" edge="1" parent="1" source="x2GLpRJdT-Dp4-05BTg7-12" target="x2GLpRJdT-Dp4-05BTg7-22">
          <mxGeometry relative="1" as="geometry" />
        </mxCell>
        <mxCell id="x2GLpRJdT-Dp4-05BTg7-12" value="" style="verticalLabelPosition=bottom;verticalAlign=top;html=1;shape=hexagon;perimeter=hexagonPerimeter2;arcSize=6;size=0.27;" vertex="1" parent="1">
          <mxGeometry x="346" y="520" width="190" height="60" as="geometry" />
        </mxCell>
        <mxCell id="x2GLpRJdT-Dp4-05BTg7-13" value="Несприятливі умови?" style="text;html=1;align=center;verticalAlign=middle;resizable=0;points=[];autosize=1;strokeColor=none;fillColor=none;" vertex="1" parent="1">
          <mxGeometry x="371" y="535" width="140" height="30" as="geometry" />
        </mxCell>
        <mxCell id="x2GLpRJdT-Dp4-05BTg7-14" value="Відобразити інформацію про сприятливі погодні умови" style="rounded=1;whiteSpace=wrap;html=1;absoluteArcSize=1;arcSize=14;strokeWidth=2;" vertex="1" parent="1">
          <mxGeometry x="556" y="630" width="260" height="40" as="geometry" />
        </mxCell>
        <mxCell id="x2GLpRJdT-Dp4-05BTg7-20" value="Ні" style="text;html=1;align=center;verticalAlign=middle;resizable=0;points=[];autosize=1;strokeColor=none;fillColor=none;" vertex="1" parent="1">
          <mxGeometry x="753.5" y="335" width="30" height="30" as="geometry" />
        </mxCell>
        <mxCell id="x2GLpRJdT-Dp4-05BTg7-21" value="Ні" style="text;html=1;align=center;verticalAlign=middle;resizable=0;points=[];autosize=1;strokeColor=none;fillColor=none;" vertex="1" parent="1">
          <mxGeometry x="528.5" y="520" width="30" height="30" as="geometry" />
        </mxCell>
        <mxCell id="x2GLpRJdT-Dp4-05BTg7-26" style="edgeStyle=orthogonalEdgeStyle;rounded=0;orthogonalLoop=1;jettySize=auto;html=1;exitX=0.5;exitY=1;exitDx=0;exitDy=0;entryX=0.5;entryY=0;entryDx=0;entryDy=0;" edge="1" parent="1" source="x2GLpRJdT-Dp4-05BTg7-22" target="x2GLpRJdT-Dp4-05BTg7-24">
          <mxGeometry relative="1" as="geometry" />
        </mxCell>
        <mxCell id="x2GLpRJdT-Dp4-05BTg7-22" value="Диспетчер переглядає рекомендації" style="rounded=1;whiteSpace=wrap;html=1;absoluteArcSize=1;arcSize=14;strokeWidth=2;" vertex="1" parent="1">
          <mxGeometry x="176" y="630" width="240" height="40" as="geometry" />
        </mxCell>
        <mxCell id="x2GLpRJdT-Dp4-05BTg7-29" style="edgeStyle=orthogonalEdgeStyle;rounded=0;orthogonalLoop=1;jettySize=auto;html=1;exitX=1;exitY=0.5;exitDx=0;exitDy=0;entryX=0.5;entryY=0;entryDx=0;entryDy=0;" edge="1" parent="1" source="x2GLpRJdT-Dp4-05BTg7-24" target="x2GLpRJdT-Dp4-05BTg7-27">
          <mxGeometry relative="1" as="geometry" />
        </mxCell>
        <mxCell id="x2GLpRJdT-Dp4-05BTg7-30" style="edgeStyle=orthogonalEdgeStyle;rounded=0;orthogonalLoop=1;jettySize=auto;html=1;exitX=0;exitY=0.5;exitDx=0;exitDy=0;entryX=0.5;entryY=0;entryDx=0;entryDy=0;" edge="1" parent="1" source="x2GLpRJdT-Dp4-05BTg7-24" target="x2GLpRJdT-Dp4-05BTg7-28">
          <mxGeometry relative="1" as="geometry" />
        </mxCell>
        <mxCell id="x2GLpRJdT-Dp4-05BTg7-24" value="" style="verticalLabelPosition=bottom;verticalAlign=top;html=1;shape=hexagon;perimeter=hexagonPerimeter2;arcSize=6;size=0.27;" vertex="1" parent="1">
          <mxGeometry x="196" y="710" width="200" height="60" as="geometry" />
        </mxCell>
        <mxCell id="x2GLpRJdT-Dp4-05BTg7-25" value="Коригувати маршрути?" style="text;html=1;align=center;verticalAlign=middle;resizable=0;points=[];autosize=1;strokeColor=none;fillColor=none;" vertex="1" parent="1">
          <mxGeometry x="221" y="725" width="150" height="30" as="geometry" />
        </mxCell>
        <mxCell id="x2GLpRJdT-Dp4-05BTg7-27" value="Попередити водіїв про небезпеку" style="rounded=1;whiteSpace=wrap;html=1;absoluteArcSize=1;arcSize=14;strokeWidth=2;" vertex="1" parent="1">
          <mxGeometry x="386" y="820" width="230" height="40" as="geometry" />
        </mxCell>
        <mxCell id="x2GLpRJdT-Dp4-05BTg7-28" value="Коригувати маршрут" style="rounded=1;whiteSpace=wrap;html=1;absoluteArcSize=1;arcSize=14;strokeWidth=2;" vertex="1" parent="1">
          <mxGeometry x="46" y="820" width="200" height="40" as="geometry" />
        </mxCell>
        <mxCell id="x2GLpRJdT-Dp4-05BTg7-31" value="Ні" style="text;html=1;align=center;verticalAlign=middle;resizable=0;points=[];autosize=1;strokeColor=none;fillColor=none;" vertex="1" parent="1">
          <mxGeometry x="386" y="710" width="30" height="30" as="geometry" />
        </mxCell>
        <mxCell id="x2GLpRJdT-Dp4-05BTg7-33" value="Так" style="text;html=1;align=center;verticalAlign=middle;resizable=0;points=[];autosize=1;strokeColor=none;fillColor=none;" vertex="1" parent="1">
          <mxGeometry x="538.5" y="335" width="40" height="30" as="geometry" />
        </mxCell>
        <mxCell id="x2GLpRJdT-Dp4-05BTg7-34" value="Так" style="text;html=1;align=center;verticalAlign=middle;resizable=0;points=[];autosize=1;strokeColor=none;fillColor=none;" vertex="1" parent="1">
          <mxGeometry x="316" y="520" width="40" height="30" as="geometry" />
        </mxCell>
        <mxCell id="x2GLpRJdT-Dp4-05BTg7-35" value="Так" style="text;html=1;align=center;verticalAlign=middle;resizable=0;points=[];autosize=1;strokeColor=none;fillColor=none;" vertex="1" parent="1">
          <mxGeometry x="156" y="710" width="40" height="30" as="geometry" />
        </mxCell>
        <mxCell id="x2GLpRJdT-Dp4-05BTg7-36" value="" style="strokeWidth=2;html=1;shape=mxgraph.flowchart.decision;whiteSpace=wrap;" vertex="1" parent="1">
          <mxGeometry x="276" y="930" width="60" height="60" as="geometry" />
        </mxCell>
        <mxCell id="x2GLpRJdT-Dp4-05BTg7-37" style="edgeStyle=orthogonalEdgeStyle;rounded=0;orthogonalLoop=1;jettySize=auto;html=1;exitX=0.5;exitY=1;exitDx=0;exitDy=0;entryX=1;entryY=0.5;entryDx=0;entryDy=0;entryPerimeter=0;" edge="1" parent="1" source="x2GLpRJdT-Dp4-05BTg7-27" target="x2GLpRJdT-Dp4-05BTg7-36">
          <mxGeometry relative="1" as="geometry" />
        </mxCell>
        <mxCell id="x2GLpRJdT-Dp4-05BTg7-38" style="edgeStyle=orthogonalEdgeStyle;rounded=0;orthogonalLoop=1;jettySize=auto;html=1;exitX=0.5;exitY=1;exitDx=0;exitDy=0;entryX=0;entryY=0.5;entryDx=0;entryDy=0;entryPerimeter=0;" edge="1" parent="1" source="x2GLpRJdT-Dp4-05BTg7-28" target="x2GLpRJdT-Dp4-05BTg7-36">
          <mxGeometry relative="1" as="geometry" />
        </mxCell>
        <mxCell id="x2GLpRJdT-Dp4-05BTg7-39" value="" style="strokeWidth=2;html=1;shape=mxgraph.flowchart.decision;whiteSpace=wrap;" vertex="1" parent="1">
          <mxGeometry x="478.5" y="1010" width="60" height="60" as="geometry" />
        </mxCell>
        <mxCell id="x2GLpRJdT-Dp4-05BTg7-40" style="edgeStyle=orthogonalEdgeStyle;rounded=0;orthogonalLoop=1;jettySize=auto;html=1;exitX=0.5;exitY=1;exitDx=0;exitDy=0;exitPerimeter=0;entryX=0;entryY=0.5;entryDx=0;entryDy=0;entryPerimeter=0;" edge="1" parent="1" source="x2GLpRJdT-Dp4-05BTg7-36" target="x2GLpRJdT-Dp4-05BTg7-39">
          <mxGeometry relative="1" as="geometry" />
        </mxCell>
        <mxCell id="x2GLpRJdT-Dp4-05BTg7-41" style="edgeStyle=orthogonalEdgeStyle;rounded=0;orthogonalLoop=1;jettySize=auto;html=1;exitX=0.5;exitY=1;exitDx=0;exitDy=0;entryX=1;entryY=0.5;entryDx=0;entryDy=0;entryPerimeter=0;" edge="1" parent="1" source="x2GLpRJdT-Dp4-05BTg7-14" target="x2GLpRJdT-Dp4-05BTg7-39">
          <mxGeometry relative="1" as="geometry" />
        </mxCell>
        <mxCell id="x2GLpRJdT-Dp4-05BTg7-48" style="edgeStyle=orthogonalEdgeStyle;rounded=0;orthogonalLoop=1;jettySize=auto;html=1;exitX=0.5;exitY=1;exitDx=0;exitDy=0;exitPerimeter=0;entryX=0.5;entryY=0;entryDx=0;entryDy=0;" edge="1" parent="1" source="x2GLpRJdT-Dp4-05BTg7-42" target="x2GLpRJdT-Dp4-05BTg7-45">
          <mxGeometry relative="1" as="geometry" />
        </mxCell>
        <mxCell id="x2GLpRJdT-Dp4-05BTg7-42" value="" style="strokeWidth=2;html=1;shape=mxgraph.flowchart.decision;whiteSpace=wrap;" vertex="1" parent="1">
          <mxGeometry x="751" y="1080" width="60" height="60" as="geometry" />
        </mxCell>
        <mxCell id="x2GLpRJdT-Dp4-05BTg7-43" style="edgeStyle=orthogonalEdgeStyle;rounded=0;orthogonalLoop=1;jettySize=auto;html=1;exitX=0.5;exitY=1;exitDx=0;exitDy=0;entryX=1;entryY=0.5;entryDx=0;entryDy=0;entryPerimeter=0;" edge="1" parent="1" source="x2GLpRJdT-Dp4-05BTg7-10" target="x2GLpRJdT-Dp4-05BTg7-42">
          <mxGeometry relative="1" as="geometry" />
        </mxCell>
        <mxCell id="x2GLpRJdT-Dp4-05BTg7-44" style="edgeStyle=orthogonalEdgeStyle;rounded=0;orthogonalLoop=1;jettySize=auto;html=1;exitX=0.5;exitY=1;exitDx=0;exitDy=0;exitPerimeter=0;entryX=0;entryY=0.5;entryDx=0;entryDy=0;entryPerimeter=0;" edge="1" parent="1" source="x2GLpRJdT-Dp4-05BTg7-39" target="x2GLpRJdT-Dp4-05BTg7-42">
          <mxGeometry relative="1" as="geometry" />
        </mxCell>
        <mxCell id="x2GLpRJdT-Dp4-05BTg7-49" style="edgeStyle=orthogonalEdgeStyle;rounded=0;orthogonalLoop=1;jettySize=auto;html=1;exitX=0.5;exitY=1;exitDx=0;exitDy=0;entryX=0.5;entryY=0;entryDx=0;entryDy=0;" edge="1" parent="1" source="x2GLpRJdT-Dp4-05BTg7-45" target="x2GLpRJdT-Dp4-05BTg7-46">
          <mxGeometry relative="1" as="geometry" />
        </mxCell>
        <mxCell id="x2GLpRJdT-Dp4-05BTg7-45" value="Система оновлює інформацію в реальному часі" style="rounded=1;whiteSpace=wrap;html=1;absoluteArcSize=1;arcSize=14;strokeWidth=2;" vertex="1" parent="1">
          <mxGeometry x="631" y="1180" width="300" height="40" as="geometry" />
        </mxCell>
        <mxCell id="x2GLpRJdT-Dp4-05BTg7-50" style="edgeStyle=orthogonalEdgeStyle;rounded=0;orthogonalLoop=1;jettySize=auto;html=1;exitX=0.5;exitY=1;exitDx=0;exitDy=0;entryX=0.5;entryY=0;entryDx=0;entryDy=0;" edge="1" parent="1" source="x2GLpRJdT-Dp4-05BTg7-46" target="x2GLpRJdT-Dp4-05BTg7-47">
          <mxGeometry relative="1" as="geometry" />
        </mxCell>
        <mxCell id="x2GLpRJdT-Dp4-05BTg7-46" value="Диспетчер завершує сесію" style="rounded=1;whiteSpace=wrap;html=1;absoluteArcSize=1;arcSize=14;strokeWidth=2;" vertex="1" parent="1">
          <mxGeometry x="696" y="1270" width="170" height="40" as="geometry" />
        </mxCell>
        <mxCell id="x2GLpRJdT-Dp4-05BTg7-47" value="" style="ellipse;html=1;shape=endState;fillColor=#000000;strokeColor=#ff0000;" vertex="1" parent="1">
          <mxGeometry x="766" y="1350" width="30" height="30" as="geometry" />
        </mxCell>
      </root>
    </mxGraphModel>
  </diagram>
  <diagram id="91xoov49X1n3tU_Uo0Cd" name="Діаграма компонентів">
    <mxGraphModel dx="1044" dy="535" grid="1" gridSize="10" guides="1" tooltips="1" connect="1" arrows="1" fold="1" page="1" pageScale="1" pageWidth="1169" pageHeight="827" math="0" shadow="0">
      <root>
        <mxCell id="0" />
        <mxCell id="1" parent="0" />
        <mxCell id="L9KI3bOTC-daF2bmaeYO-1" value="User Interface" style="shape=module;align=left;spacingLeft=20;align=center;verticalAlign=top;whiteSpace=wrap;html=1;" vertex="1" parent="1">
          <mxGeometry x="410" y="40" width="130" height="60" as="geometry" />
        </mxCell>
        <mxCell id="L9KI3bOTC-daF2bmaeYO-2" value="Authentication Module" style="shape=module;align=left;spacingLeft=20;align=center;verticalAlign=top;whiteSpace=wrap;html=1;" vertex="1" parent="1">
          <mxGeometry x="150" y="160" width="170" height="50" as="geometry" />
        </mxCell>
        <mxCell id="L9KI3bOTC-daF2bmaeYO-3" value="Route Planner" style="shape=module;align=left;spacingLeft=20;align=center;verticalAlign=top;whiteSpace=wrap;html=1;" vertex="1" parent="1">
          <mxGeometry x="400" y="160" width="150" height="50" as="geometry" />
        </mxCell>
        <mxCell id="L9KI3bOTC-daF2bmaeYO-5" value="Weather Forecast Module" style="shape=module;align=left;spacingLeft=20;align=center;verticalAlign=top;whiteSpace=wrap;html=1;" vertex="1" parent="1">
          <mxGeometry x="290" y="270" width="150" height="60" as="geometry" />
        </mxCell>
        <mxCell id="L9KI3bOTC-daF2bmaeYO-6" value="Traffic Monitoring Module" style="shape=module;align=left;spacingLeft=20;align=center;verticalAlign=top;whiteSpace=wrap;html=1;" vertex="1" parent="1">
          <mxGeometry x="500" y="270" width="140" height="60" as="geometry" />
        </mxCell>
        <mxCell id="L9KI3bOTC-daF2bmaeYO-7" value="Notification Service" style="shape=module;align=left;spacingLeft=20;align=center;verticalAlign=top;whiteSpace=wrap;html=1;" vertex="1" parent="1">
          <mxGeometry x="700" y="270" width="150" height="50" as="geometry" />
        </mxCell>
        <mxCell id="L9KI3bOTC-daF2bmaeYO-8" value="Data Storage" style="shape=module;align=left;spacingLeft=20;align=center;verticalAlign=top;whiteSpace=wrap;html=1;" vertex="1" parent="1">
          <mxGeometry x="140" y="270" width="100" height="50" as="geometry" />
        </mxCell>
        <mxCell id="L9KI3bOTC-daF2bmaeYO-9" value="Integration API" style="shape=module;align=left;spacingLeft=20;align=center;verticalAlign=top;whiteSpace=wrap;html=1;" vertex="1" parent="1">
          <mxGeometry x="410" y="389" width="100" height="50" as="geometry" />
        </mxCell>
        <mxCell id="L9KI3bOTC-daF2bmaeYO-10" value="" style="endArrow=block;dashed=1;endFill=0;endSize=12;html=1;rounded=0;exitX=0.5;exitY=1;exitDx=0;exitDy=0;entryX=0.5;entryY=0;entryDx=0;entryDy=0;" edge="1" parent="1" source="L9KI3bOTC-daF2bmaeYO-1" target="L9KI3bOTC-daF2bmaeYO-2">
          <mxGeometry width="160" relative="1" as="geometry">
            <mxPoint x="320" y="70" as="sourcePoint" />
            <mxPoint x="480" y="70" as="targetPoint" />
          </mxGeometry>
        </mxCell>
        <mxCell id="L9KI3bOTC-daF2bmaeYO-11" value="" style="endArrow=block;dashed=1;endFill=0;endSize=12;html=1;rounded=0;exitX=0.5;exitY=1;exitDx=0;exitDy=0;entryX=0.5;entryY=0;entryDx=0;entryDy=0;" edge="1" parent="1" source="L9KI3bOTC-daF2bmaeYO-1" target="L9KI3bOTC-daF2bmaeYO-3">
          <mxGeometry width="160" relative="1" as="geometry">
            <mxPoint x="530" y="110" as="sourcePoint" />
            <mxPoint x="690" y="110" as="targetPoint" />
          </mxGeometry>
        </mxCell>
        <mxCell id="L9KI3bOTC-daF2bmaeYO-12" value="" style="endArrow=block;dashed=1;endFill=0;endSize=12;html=1;rounded=0;exitX=0.5;exitY=1;exitDx=0;exitDy=0;entryX=0.5;entryY=0;entryDx=0;entryDy=0;" edge="1" parent="1" source="L9KI3bOTC-daF2bmaeYO-3" target="L9KI3bOTC-daF2bmaeYO-5">
          <mxGeometry width="160" relative="1" as="geometry">
            <mxPoint x="450" y="280" as="sourcePoint" />
            <mxPoint x="610" y="280" as="targetPoint" />
          </mxGeometry>
        </mxCell>
        <mxCell id="L9KI3bOTC-daF2bmaeYO-13" value="" style="endArrow=block;dashed=1;endFill=0;endSize=12;html=1;rounded=0;exitX=0.5;exitY=1;exitDx=0;exitDy=0;entryX=0.5;entryY=0;entryDx=0;entryDy=0;" edge="1" parent="1" source="L9KI3bOTC-daF2bmaeYO-3" target="L9KI3bOTC-daF2bmaeYO-6">
          <mxGeometry width="160" relative="1" as="geometry">
            <mxPoint x="450" y="280" as="sourcePoint" />
            <mxPoint x="610" y="280" as="targetPoint" />
          </mxGeometry>
        </mxCell>
        <mxCell id="L9KI3bOTC-daF2bmaeYO-14" value="" style="endArrow=block;dashed=1;endFill=0;endSize=12;html=1;rounded=0;entryX=0.5;entryY=0;entryDx=0;entryDy=0;exitX=0.5;exitY=1;exitDx=0;exitDy=0;" edge="1" parent="1" source="L9KI3bOTC-daF2bmaeYO-6" target="L9KI3bOTC-daF2bmaeYO-9">
          <mxGeometry width="160" relative="1" as="geometry">
            <mxPoint x="450" y="280" as="sourcePoint" />
            <mxPoint x="610" y="280" as="targetPoint" />
          </mxGeometry>
        </mxCell>
        <mxCell id="L9KI3bOTC-daF2bmaeYO-15" value="" style="endArrow=block;dashed=1;endFill=0;endSize=12;html=1;rounded=0;exitX=0.5;exitY=1;exitDx=0;exitDy=0;entryX=0.5;entryY=0;entryDx=0;entryDy=0;" edge="1" parent="1" source="L9KI3bOTC-daF2bmaeYO-5" target="L9KI3bOTC-daF2bmaeYO-9">
          <mxGeometry width="160" relative="1" as="geometry">
            <mxPoint x="320" y="389" as="sourcePoint" />
            <mxPoint x="480" y="389" as="targetPoint" />
          </mxGeometry>
        </mxCell>
        <mxCell id="L9KI3bOTC-daF2bmaeYO-16" value="" style="endArrow=block;dashed=1;endFill=0;endSize=12;html=1;rounded=0;exitX=0.5;exitY=1;exitDx=0;exitDy=0;entryX=1;entryY=0.25;entryDx=0;entryDy=0;" edge="1" parent="1" source="L9KI3bOTC-daF2bmaeYO-3" target="L9KI3bOTC-daF2bmaeYO-8">
          <mxGeometry width="160" relative="1" as="geometry">
            <mxPoint x="450" y="280" as="sourcePoint" />
            <mxPoint x="610" y="280" as="targetPoint" />
          </mxGeometry>
        </mxCell>
        <mxCell id="L9KI3bOTC-daF2bmaeYO-17" value="" style="endArrow=block;dashed=1;endFill=0;endSize=12;html=1;rounded=0;exitX=0.25;exitY=1;exitDx=0;exitDy=0;entryX=0.5;entryY=0;entryDx=0;entryDy=0;" edge="1" parent="1" source="L9KI3bOTC-daF2bmaeYO-2" target="L9KI3bOTC-daF2bmaeYO-8">
          <mxGeometry width="160" relative="1" as="geometry">
            <mxPoint x="450" y="280" as="sourcePoint" />
            <mxPoint x="610" y="280" as="targetPoint" />
          </mxGeometry>
        </mxCell>
        <mxCell id="L9KI3bOTC-daF2bmaeYO-18" value="" style="endArrow=block;dashed=1;endFill=0;endSize=12;html=1;rounded=0;exitX=0.5;exitY=1;exitDx=0;exitDy=0;entryX=0.5;entryY=0;entryDx=0;entryDy=0;" edge="1" parent="1" source="L9KI3bOTC-daF2bmaeYO-3" target="L9KI3bOTC-daF2bmaeYO-7">
          <mxGeometry width="160" relative="1" as="geometry">
            <mxPoint x="450" y="280" as="sourcePoint" />
            <mxPoint x="610" y="280" as="targetPoint" />
          </mxGeometry>
        </mxCell>
        <mxCell id="L9KI3bOTC-daF2bmaeYO-19" value="" style="endArrow=block;dashed=1;endFill=0;endSize=12;html=1;rounded=0;exitX=0.5;exitY=0;exitDx=0;exitDy=0;entryX=1;entryY=0.5;entryDx=0;entryDy=0;" edge="1" parent="1" source="L9KI3bOTC-daF2bmaeYO-7" target="L9KI3bOTC-daF2bmaeYO-1">
          <mxGeometry width="160" relative="1" as="geometry">
            <mxPoint x="450" y="280" as="sourcePoint" />
            <mxPoint x="610" y="280" as="targetPoint" />
          </mxGeometry>
        </mxCell>
      </root>
    </mxGraphModel>
  </diagram>
</mxfile>
